<svg width="249" height="191" viewBox="0 0 249 191" fill="none" xmlns="http://www.w3.org/2000/svg">
<g clip-path="url(#clip0_37_19)">
<path opacity="0.1" d="M42.5014 28.086C41.1689 29.7041 40.6559 31.9791 40.0821 34.1179C35.4624 51.3546 24.0784 65.2188 11.1141 75.1219C5.62391 79.3167 -1.06009 84.9422 0.141036 92.4632C0.787796 96.5023 3.62527 99.4756 5.73332 102.765C10.1561 109.654 11.5906 119.017 9.48258 127.263C7.08519 136.645 0.384179 145.4 2.45819 154.887C3.73712 160.726 8.07965 164.882 12.2544 168.454C18.7674 174.023 25.4879 179.239 32.4158 184.104C37.0598 187.365 42.0005 190.538 47.4128 190.951C52.1784 191.316 56.8468 189.503 61.3717 187.715C65.3252 186.15 69.3784 184.523 72.5708 181.389C74.6546 179.342 76.3152 176.702 78.6299 175.028C84.0666 171.096 91.0497 173.588 97.2838 175.272C111.994 179.223 127.737 177.78 141.735 171.199C163.207 161.101 179.573 139.896 200.576 128.518C209.606 123.625 219.429 120.588 227.791 114.286C232.502 110.698 236.55 106.314 239.753 101.332C246.075 91.5727 249.494 79.1294 248.506 66.9488C247.519 54.7683 241.988 43.0307 233.3 36.1545C224 28.7941 212.254 27.4193 201.672 23.0007C190.75 18.4312 181.029 10.5817 170.212 5.68859C161.453 1.73552 151.921 -0.204643 142.315 0.0105108C132.709 0.225665 123.273 2.59067 114.7 6.93194C102.92 12.8932 90.984 26.8013 77.864 27.8573C68.5176 28.5873 49.8005 19.2244 42.5014 28.086Z" fill="#478259"/>
<path d="M211.079 84.4509C211.079 84.4509 207.539 72.4188 211.743 63.5645C213.531 59.8614 214.07 55.6777 213.28 51.6419C212.889 49.7287 212.325 47.8555 211.592 46.0455" stroke="#535461" stroke-width="2" stroke-miterlimit="10"/>
<path d="M214.221 40.4517C214.221 41.9262 211.546 46.2013 211.546 46.2013C211.546 46.2013 208.872 41.9262 208.872 40.4517C208.845 40.0846 208.893 39.7158 209.015 39.3684C209.137 39.021 209.329 38.7025 209.579 38.4327C209.83 38.163 210.133 37.9478 210.47 37.8007C210.807 37.6536 211.171 37.5776 211.539 37.5776C211.907 37.5776 212.271 37.6536 212.608 37.8007C212.945 37.9478 213.248 38.163 213.499 38.4327C213.749 38.7025 213.941 39.021 214.063 39.3684C214.185 39.7158 214.233 40.0846 214.206 40.4517H214.221Z" fill="#478259"/>
<path d="M218.619 48.6174C217.819 49.8559 213.248 51.9947 213.248 51.9947C213.248 51.9947 213.331 46.9555 214.131 45.717C214.538 45.1757 215.135 44.8089 215.801 44.6906C216.468 44.5722 217.154 44.7112 217.722 45.0794C218.29 45.4477 218.698 46.0178 218.863 46.6748C219.027 47.3318 218.937 48.0269 218.61 48.6198L218.619 48.6174Z" fill="#478259"/>
<path d="M218.427 62.5766C217.112 63.2409 212.105 62.781 212.105 62.781C212.105 62.781 214.719 58.4719 216.035 57.8076C216.658 57.5485 217.357 57.535 217.99 57.77C218.623 58.0049 219.144 58.4709 219.448 59.0743C219.752 59.6777 219.817 60.3738 219.629 61.023C219.442 61.6722 219.016 62.2263 218.437 62.5742L218.427 62.5766Z" fill="#478259"/>
<path d="M215.906 73.1147C214.722 73.9906 209.698 74.3872 209.698 74.3872C209.698 74.3872 211.546 69.6985 212.733 68.8201C213.304 68.4729 213.984 68.3521 214.64 68.4816C215.295 68.611 215.878 68.9813 216.275 69.5195C216.671 70.0578 216.852 70.725 216.781 71.3899C216.711 72.0548 216.394 72.6692 215.894 73.1122L215.906 73.1147Z" fill="#478259"/>
<path d="M207.656 52.2794C208.714 53.3062 213.637 54.3719 213.637 54.3719C213.637 54.3719 212.422 49.4788 211.374 48.4496C211.129 48.1753 210.831 47.9543 210.497 47.8005C210.164 47.6466 209.802 47.5632 209.435 47.5554C209.067 47.5476 208.702 47.6156 208.363 47.7551C208.023 47.8946 207.715 48.1027 207.459 48.3664C207.203 48.63 207.005 48.9436 206.875 49.2876C206.746 49.6316 206.688 49.9986 206.707 50.3657C206.725 50.7328 206.819 51.0922 206.982 51.4215C207.146 51.7507 207.375 52.0428 207.656 52.2794Z" fill="#478259"/>
<path d="M204.862 64.6302C206.178 65.2945 211.184 64.8346 211.184 64.8346C211.184 64.8346 208.57 60.5254 207.255 59.8612C206.631 59.6021 205.933 59.5886 205.3 59.8236C204.666 60.0585 204.145 60.5245 203.841 61.1279C203.537 61.7313 203.472 62.4274 203.66 63.0766C203.848 63.7258 204.274 64.2799 204.853 64.6278L204.862 64.6302Z" fill="#478259"/>
<path d="M203.792 77.0078C204.977 77.8837 210 78.2803 210 78.2803C210 78.2803 208.152 73.5916 206.965 72.7132C206.687 72.467 206.361 72.2815 206.007 72.1684C205.654 72.0554 205.28 72.0172 204.911 72.0565C204.542 72.0957 204.185 72.2114 203.863 72.3962C203.541 72.5811 203.261 72.831 203.04 73.1301C202.82 73.4292 202.665 73.771 202.583 74.1336C202.502 74.4961 202.498 74.8717 202.57 75.2362C202.641 75.6007 202.788 75.9463 203.001 76.2509C203.214 76.5554 203.487 76.8124 203.805 77.0053L203.792 77.0078Z" fill="#478259"/>
<path opacity="0.1" d="M214.221 40.4517C214.221 41.9262 211.546 46.2013 211.546 46.2013C211.546 46.2013 208.872 41.9262 208.872 40.4517C208.845 40.0846 208.893 39.7158 209.015 39.3684C209.137 39.021 209.329 38.7025 209.579 38.4327C209.83 38.163 210.133 37.9478 210.47 37.8007C210.807 37.6536 211.171 37.5776 211.539 37.5776C211.907 37.5776 212.271 37.6536 212.608 37.8007C212.945 37.9478 213.248 38.163 213.499 38.4327C213.749 38.7025 213.941 39.021 214.063 39.3684C214.185 39.7158 214.233 40.0846 214.206 40.4517H214.221Z" fill="#478259"/>
<path opacity="0.1" d="M218.619 48.6174C217.819 49.8559 213.248 51.9947 213.248 51.9947C213.248 51.9947 213.331 46.9555 214.131 45.717C214.538 45.1757 215.135 44.8089 215.801 44.6906C216.468 44.5722 217.154 44.7112 217.722 45.0794C218.29 45.4477 218.698 46.0178 218.863 46.6748C219.027 47.3318 218.937 48.0269 218.61 48.6198L218.619 48.6174Z" fill="#478259"/>
<path opacity="0.1" d="M218.427 62.5766C217.112 63.2409 212.105 62.781 212.105 62.781C212.105 62.781 214.719 58.4719 216.035 57.8076C216.658 57.5485 217.357 57.535 217.99 57.77C218.623 58.0049 219.144 58.4709 219.448 59.0743C219.752 59.6777 219.817 60.3738 219.629 61.023C219.442 61.6722 219.016 62.2263 218.437 62.5742L218.427 62.5766Z" fill="#478259"/>
<path opacity="0.1" d="M215.906 73.1147C214.722 73.9906 209.698 74.3872 209.698 74.3872C209.698 74.3872 211.546 69.6985 212.733 68.8201C213.304 68.4729 213.984 68.3521 214.64 68.4816C215.295 68.611 215.878 68.9813 216.275 69.5195C216.671 70.0578 216.852 70.725 216.781 71.3899C216.711 72.0548 216.394 72.6692 215.894 73.1122L215.906 73.1147Z" fill="#478259"/>
<path opacity="0.1" d="M207.656 52.2794C208.714 53.3062 213.637 54.3719 213.637 54.3719C213.637 54.3719 212.422 49.4788 211.374 48.4496C211.129 48.1753 210.831 47.9543 210.497 47.8005C210.164 47.6466 209.802 47.5632 209.435 47.5554C209.067 47.5476 208.702 47.6156 208.363 47.7551C208.023 47.8946 207.715 48.1027 207.459 48.3664C207.203 48.63 207.005 48.9436 206.875 49.2876C206.746 49.6316 206.688 49.9986 206.707 50.3657C206.725 50.7328 206.819 51.0922 206.982 51.4215C207.146 51.7507 207.375 52.0428 207.656 52.2794Z" fill="#478259"/>
<path opacity="0.1" d="M204.862 64.6302C206.178 65.2945 211.184 64.8346 211.184 64.8346C211.184 64.8346 208.57 60.5254 207.255 59.8612C206.631 59.6021 205.933 59.5886 205.3 59.8236C204.666 60.0585 204.145 60.5245 203.841 61.1279C203.537 61.7313 203.472 62.4274 203.66 63.0766C203.848 63.7258 204.274 64.2799 204.853 64.6278L204.862 64.6302Z" fill="#478259"/>
<path opacity="0.1" d="M203.792 77.0078C204.977 77.8837 210 78.2803 210 78.2803C210 78.2803 208.152 73.5916 206.965 72.7132C206.687 72.467 206.361 72.2815 206.007 72.1684C205.654 72.0554 205.28 72.0172 204.911 72.0565C204.542 72.0957 204.185 72.2114 203.863 72.3962C203.541 72.5811 203.261 72.831 203.04 73.1301C202.82 73.4292 202.665 73.771 202.583 74.1336C202.502 74.4961 202.498 74.8717 202.57 75.2362C202.641 75.6007 202.788 75.9463 203.001 76.2509C203.214 76.5554 203.487 76.8124 203.805 77.0053L203.792 77.0078Z" fill="#478259"/>
<path d="M225.911 103.673C225.911 103.673 222.371 91.641 226.575 82.7866C228.363 79.0835 228.902 74.8999 228.112 70.864C227.721 68.9509 227.156 67.0776 226.424 65.2677" stroke="#535461" stroke-width="2" stroke-miterlimit="10"/>
<path d="M229.053 59.6738C229.053 61.1484 226.378 65.4235 226.378 65.4235C226.378 65.4235 223.703 61.1484 223.703 59.6738C223.676 59.3067 223.725 58.9379 223.847 58.5906C223.969 58.2432 224.161 57.9246 224.411 57.6549C224.661 57.3852 224.965 57.17 225.302 57.0229C225.639 56.8757 226.003 56.7998 226.371 56.7998C226.739 56.7998 227.103 56.8757 227.44 57.0229C227.777 57.17 228.08 57.3852 228.331 57.6549C228.581 57.9246 228.773 58.2432 228.895 58.5906C229.016 58.9379 229.065 59.3067 229.038 59.6738H229.053Z" fill="#478259"/>
<path d="M233.451 67.8396C232.651 69.0781 228.09 71.2144 228.09 71.2144C228.09 71.2144 228.172 66.1753 228.972 64.9368C229.15 64.6153 229.391 64.3337 229.682 64.1097C229.973 63.8857 230.307 63.724 230.663 63.6346C231.019 63.5453 231.389 63.5302 231.752 63.5903C232.114 63.6505 232.459 63.7845 232.768 63.9842C233.076 64.1839 233.339 64.4449 233.542 64.7509C233.745 65.0569 233.883 65.4015 233.947 65.7632C234.011 66.1248 234 66.4958 233.915 66.853C233.83 67.2102 233.672 67.5461 233.451 67.8396Z" fill="#478259"/>
<path d="M233.259 81.7987C231.944 82.463 226.937 82.0031 226.937 82.0031C226.937 82.0031 229.551 77.6939 230.866 77.0297C231.182 76.8402 231.533 76.7179 231.897 76.6703C232.262 76.6227 232.633 76.6509 232.986 76.7532C233.339 76.8554 233.668 77.0295 233.951 77.2645C234.234 77.4995 234.466 77.7904 234.631 78.1191C234.797 78.4477 234.893 78.807 234.914 79.1745C234.934 79.542 234.879 79.9098 234.751 80.2549C234.623 80.6 234.425 80.915 234.17 81.1802C233.915 81.4454 233.608 81.6551 233.269 81.7963L233.259 81.7987Z" fill="#478259"/>
<path d="M230.738 92.3368C229.553 93.2128 224.53 93.6094 224.53 93.6094C224.53 93.6094 226.378 88.9206 227.565 88.0423C228.136 87.695 228.816 87.5743 229.471 87.7037C230.127 87.8332 230.71 88.2035 231.107 88.7417C231.503 89.28 231.684 89.9472 231.613 90.6121C231.543 91.277 231.226 91.8914 230.725 92.3344L230.738 92.3368Z" fill="#478259"/>
<path d="M222.488 71.5015C223.545 72.5283 228.469 73.594 228.469 73.594C228.469 73.594 227.253 68.7009 226.205 67.6716C225.688 67.2359 225.025 67.0126 224.349 67.0466C223.674 67.0806 223.036 67.3694 222.565 67.8548C222.094 68.3402 221.824 68.9863 221.81 69.6629C221.795 70.3395 222.038 70.9964 222.488 71.5015Z" fill="#478259"/>
<path d="M219.694 83.8524C221.009 84.5166 226.016 84.0568 226.016 84.0568C226.016 84.0568 223.402 79.7476 222.087 79.0834C221.463 78.8242 220.764 78.8108 220.131 79.0458C219.498 79.2807 218.977 79.7466 218.673 80.35C218.369 80.9534 218.304 81.6496 218.492 82.2988C218.679 82.9479 219.105 83.5021 219.684 83.85L219.694 83.8524Z" fill="#478259"/>
<path d="M218.624 96.2299C219.808 97.1059 224.832 97.5025 224.832 97.5025C224.832 97.5025 222.984 92.8137 221.797 91.9354C221.519 91.6892 221.193 91.5037 220.839 91.3906C220.485 91.2775 220.112 91.2394 219.743 91.2786C219.374 91.3178 219.017 91.4336 218.695 91.6184C218.373 91.8033 218.092 92.0532 217.872 92.3523C217.652 92.6514 217.496 92.9931 217.415 93.3557C217.334 93.7183 217.329 94.0938 217.401 94.4584C217.473 94.8229 217.62 95.1684 217.833 95.473C218.045 95.7776 218.319 96.0345 218.636 96.2275L218.624 96.2299Z" fill="#478259"/>
<path opacity="0.1" d="M229.053 59.6738C229.053 61.1484 226.378 65.4235 226.378 65.4235C226.378 65.4235 223.703 61.1484 223.703 59.6738C223.676 59.3067 223.725 58.9379 223.847 58.5906C223.969 58.2432 224.161 57.9246 224.411 57.6549C224.661 57.3852 224.965 57.17 225.302 57.0229C225.639 56.8757 226.003 56.7998 226.371 56.7998C226.739 56.7998 227.103 56.8757 227.44 57.0229C227.777 57.17 228.08 57.3852 228.331 57.6549C228.581 57.9246 228.773 58.2432 228.895 58.5906C229.016 58.9379 229.065 59.3067 229.038 59.6738H229.053Z" fill="#478259"/>
<path opacity="0.1" d="M233.451 67.8396C232.651 69.0781 228.09 71.2144 228.09 71.2144C228.09 71.2144 228.172 66.1753 228.972 64.9368C229.15 64.6153 229.391 64.3337 229.682 64.1097C229.973 63.8857 230.307 63.724 230.663 63.6346C231.019 63.5453 231.389 63.5302 231.752 63.5903C232.114 63.6505 232.459 63.7845 232.768 63.9842C233.076 64.1839 233.339 64.4449 233.542 64.7509C233.745 65.0569 233.883 65.4015 233.947 65.7632C234.011 66.1248 234 66.4958 233.915 66.853C233.83 67.2102 233.672 67.5461 233.451 67.8396Z" fill="#478259"/>
<path opacity="0.1" d="M233.259 81.7987C231.944 82.463 226.937 82.0031 226.937 82.0031C226.937 82.0031 229.551 77.6939 230.866 77.0297C231.182 76.8402 231.533 76.7179 231.897 76.6703C232.262 76.6227 232.633 76.6509 232.986 76.7532C233.339 76.8554 233.668 77.0295 233.951 77.2645C234.234 77.4995 234.466 77.7904 234.631 78.1191C234.797 78.4477 234.893 78.807 234.914 79.1745C234.934 79.542 234.879 79.9098 234.751 80.2549C234.623 80.6 234.425 80.915 234.17 81.1802C233.915 81.4454 233.608 81.6551 233.269 81.7963L233.259 81.7987Z" fill="#478259"/>
<path opacity="0.1" d="M230.738 92.3368C229.553 93.2128 224.53 93.6094 224.53 93.6094C224.53 93.6094 226.378 88.9206 227.565 88.0423C228.136 87.695 228.816 87.5743 229.471 87.7037C230.127 87.8332 230.71 88.2035 231.107 88.7417C231.503 89.28 231.684 89.9472 231.613 90.6121C231.543 91.277 231.226 91.8914 230.725 92.3344L230.738 92.3368Z" fill="#478259"/>
<path opacity="0.1" d="M222.488 71.5015C223.545 72.5283 228.469 73.594 228.469 73.594C228.469 73.594 227.253 68.7009 226.205 67.6716C225.688 67.2359 225.025 67.0126 224.349 67.0466C223.674 67.0806 223.036 67.3694 222.565 67.8548C222.094 68.3402 221.824 68.9863 221.81 69.6629C221.795 70.3395 222.038 70.9964 222.488 71.5015Z" fill="#478259"/>
<path opacity="0.1" d="M219.694 83.8524C221.009 84.5166 226.016 84.0568 226.016 84.0568C226.016 84.0568 223.402 79.7476 222.087 79.0834C221.463 78.8242 220.764 78.8108 220.131 79.0458C219.498 79.2807 218.977 79.7466 218.673 80.35C218.369 80.9534 218.304 81.6496 218.492 82.2988C218.679 82.9479 219.105 83.5021 219.684 83.85L219.694 83.8524Z" fill="#478259"/>
<path opacity="0.1" d="M218.624 96.2299C219.808 97.1059 224.832 97.5025 224.832 97.5025C224.832 97.5025 222.984 92.8137 221.797 91.9354C221.519 91.6892 221.193 91.5037 220.839 91.3906C220.485 91.2775 220.112 91.2394 219.743 91.2786C219.374 91.3178 219.017 91.4336 218.695 91.6184C218.373 91.8033 218.092 92.0532 217.872 92.3523C217.652 92.6514 217.496 92.9931 217.415 93.3557C217.334 93.7183 217.329 94.0938 217.401 94.4584C217.473 94.8229 217.62 95.1684 217.833 95.473C218.045 95.7776 218.319 96.0345 218.636 96.2275L218.624 96.2299Z" fill="#478259"/>
<path opacity="0.1" d="M131.283 143.901C197.325 137.456 250.022 123.607 248.985 112.969C247.949 102.331 193.571 98.9315 127.529 105.377C61.4872 111.822 8.79013 125.671 9.82684 136.309C10.8636 146.947 65.2414 150.346 131.283 143.901Z" fill="#478259"/>
<path d="M238.579 114.664C243.075 105.442 242.146 90.4317 241.667 85.3366C241.562 84.2222 241.48 83.5823 241.48 83.5823C241.48 83.5823 237.516 82.9569 238.978 78.1563C239.693 75.8058 237.154 74.5065 234.382 73.7936C232.4 73.3193 230.378 73.0333 228.343 72.9395L189.953 70.5672C184.689 62.2067 174.331 63.5499 174.331 63.5499C174.331 63.5499 165.092 62.5888 158.541 62.489C157.547 61.6125 156.457 60.851 155.293 60.2188C154.599 59.8015 153.86 59.4644 153.09 59.2139C152.154 58.9437 151.168 58.8964 150.21 59.076C149.253 59.2555 148.35 59.6569 147.576 60.248C147.198 60.5199 146.89 60.8776 146.678 61.2919C146.597 61.4802 146.536 61.6768 146.496 61.8783C146.397 62.2218 146.316 62.5702 146.253 62.9221C146.196 63.0915 146.114 63.2514 146.01 63.3966C145.747 63.7689 145.295 64.0487 145.236 64.4988C145.235 64.5247 145.235 64.5507 145.236 64.5767C145.188 64.6627 145.156 64.7566 145.142 64.854C145.124 65.0544 145.167 65.2553 145.266 65.4307C145.28 65.4599 145.297 65.4867 145.314 65.5134C144.991 65.9818 144.727 66.4885 144.529 67.022C144.439 67.071 144.352 67.1255 144.269 67.185L144.196 67.2386V67.387L144.154 67.4186L144.065 69.8153L144.116 69.8542C144.189 70.9723 144.526 72.057 145.099 73.0195C145.672 73.9821 146.465 74.7952 147.413 75.3922C147.444 75.5455 147.473 75.7012 147.503 75.8642C147.636 76.6501 147.696 77.4468 147.682 78.2439H147.641C146.498 77.7572 144.544 78.4726 142.863 79.3072H121.097C125.343 73.8422 130.536 69.6036 130.536 69.6036V64.8005C126.826 64.6156 94.23 80.2853 87.084 83.7453L86.7679 83.8986L50.0412 85.0373C43.3889 84.9959 37.5729 85.9741 32.535 87.5678C24.1163 90.2142 16.5511 95.0508 10.6132 101.583C6.27555 106.347 4.37417 110.284 4.37417 110.284L4.41551 110.615L4.37417 110.7L4.43253 110.751L5.42212 118.567L6.10292 123.944C1.37136 127.005 7.50099 128.231 7.50099 128.231C13.3364 133.239 22.7242 133.032 22.7242 133.032C25.017 136.163 31.6913 135.745 31.6913 135.745H66.7257C67.2714 132.526 68.002 129.341 68.914 126.207C70.4093 136.983 78.9071 145.239 89.1629 145.239C89.9236 145.239 90.6836 145.192 91.4387 145.1C92.1938 145.192 92.9538 145.239 93.7145 145.239C104.089 145.239 112.663 136.789 114.012 125.832H115.726C115.406 128.28 114.85 130.691 114.066 133.032C145.555 123.849 204.155 119.467 204.155 119.467C204.398 117.155 204.665 114.922 204.955 112.778C207.369 118.776 212.842 122.963 219.213 122.963C219.791 122.963 220.369 122.927 220.944 122.856C221.518 122.927 222.096 122.963 222.675 122.963C230.239 122.963 236.534 117.058 237.954 109.228C238.142 110.61 238.249 112.002 238.275 113.396C238.005 114.725 237.769 115.574 237.738 115.693C237.927 115.346 238.107 114.991 238.277 114.627C238.277 114.768 238.277 114.914 238.277 115.06C238.219 115.304 238.178 115.44 238.166 115.486L238.273 115.287C238.273 115.394 238.273 115.498 238.273 115.605C238.248 115.615 238.377 115.265 238.579 114.664Z" fill="url(#paint0_linear_37_19)"/>
<path d="M234.905 81.5287H162.716V110.671H234.905V81.5287Z" fill="#6F7D95"/>
<path d="M144.361 67.8809L154.614 90.8672L174.919 89.636L175.739 80.1952L176.354 69.1121L147.644 67.0585L144.361 67.8809Z" fill="#4B5C7A"/>
<path d="M144.361 67.8809C144.361 67.8809 148.251 64.1873 152.976 63.3649C157.7 62.5425 173.485 64.1849 173.485 64.1849L175.741 68.078L175.318 69.9321L144.361 67.8809Z" fill="#FF4D52"/>
<path d="M183.018 79.6819H110.214V101.026H183.018V79.6819Z" fill="#4B5C7A"/>
<path d="M165.106 94.2031C167.029 87.7674 163.195 83.5385 163.195 83.5385L156.839 79.1004C156.834 79.1155 156.827 79.1301 156.82 79.1442C155.993 78.1747 155.402 77.0272 155.091 75.7912C155.072 75.7134 155.055 75.6331 155.035 75.5479C155.616 75.1159 156.125 74.5944 156.543 74.0029C157.578 73.3678 158.04 72.3459 158.215 71.3263C158.882 70.3368 159.412 69.2623 159.793 68.1316C159.856 67.9487 159.91 67.7627 159.954 67.5744C160.076 67.2237 160.131 66.8529 160.114 66.4819C160.063 66.0687 159.925 65.6709 159.711 65.314C158.641 63.3674 156.715 62.0121 154.763 60.9075C154.08 60.4973 153.354 60.1658 152.596 59.9196C151.676 59.6541 150.706 59.6078 149.765 59.7844C148.823 59.961 147.936 60.3556 147.174 60.9367C146.803 61.204 146.5 61.556 146.292 61.9635C146.211 62.1487 146.151 62.342 146.112 62.5401C146.017 62.8782 145.94 63.221 145.881 63.5669C145.828 63.7322 145.751 63.8888 145.652 64.0317C145.392 64.3966 144.95 64.6716 144.891 65.1169C144.89 65.1428 144.89 65.1688 144.891 65.1947C144.844 65.2793 144.813 65.3716 144.799 65.4672C144.781 65.6642 144.823 65.8619 144.92 66.0342C144.935 66.0634 144.952 66.0901 144.969 66.1169C144.651 66.5777 144.391 67.0762 144.196 67.6011C144.107 67.6493 144.021 67.703 143.938 67.7617L143.868 67.8128V67.9588L143.826 67.9905L143.736 70.3482L143.785 70.3871C143.857 71.4869 144.188 72.5539 144.751 73.5009C145.315 74.4478 146.094 75.2477 147.026 75.835C147.058 75.9859 147.087 76.1392 147.114 76.2998C147.26 77.1487 147.319 78.0106 147.289 78.8717C147.279 78.7973 147.279 78.7221 147.289 78.6478C145.531 77.8521 141.696 80.0517 140.152 81.025C139.918 81.136 139.7 81.2775 139.503 81.446L139.476 81.4654C138.414 82.3268 136.316 84.721 134.65 90.8745C132.34 99.4612 132.581 101.408 130.898 103.398C129.216 105.388 127.545 119.411 127.545 119.411L130.932 120.323L131.365 118.932C135.392 122.606 146.666 124.375 146.666 124.375L147.011 123.302C148.74 123.924 151.631 122.978 151.631 122.978C155.857 121.484 157.44 117.693 160.506 112.693C163.572 107.693 165.106 94.2031 165.106 94.2031ZM148.062 120.075L155.867 95.848C156.574 99.6097 153.452 105.534 153.175 109.408C153.002 111.9 150.104 116.851 148.062 120.075Z" fill="url(#paint1_linear_37_19)"/>
<path d="M157.826 68.7107C157.826 68.7107 159.186 73.8909 155.152 74.7936C151.118 75.6964 153.776 72.4651 153.776 72.4651L157.666 68.6718L157.826 68.7107Z" fill="#472727"/>
<path d="M140.962 81.0566C140.962 81.0566 137.962 82.2732 135.756 90.4682C133.551 98.6632 133.77 100.512 132.182 102.418C130.594 104.323 128.968 117.691 128.968 117.691L132.143 118.547L134.908 109.612L142.511 86.0106L140.962 81.0566Z" fill="#DDE0E4"/>
<path opacity="0.05" d="M140.962 81.0566C140.962 81.0566 137.962 82.2732 135.756 90.4682C133.551 98.6632 133.77 100.512 132.182 102.418C130.594 104.323 128.968 117.691 128.968 117.691L132.143 118.547L134.908 109.612L142.511 86.0106L140.962 81.0566Z" fill="black"/>
<path d="M157.622 80.132C157.622 80.132 145.061 86.5216 146.9 82.3535C147.809 80.2951 147.775 78.1612 147.51 76.5139C147.359 75.5436 147.093 74.5946 146.72 73.6865C146.72 73.6865 155.259 66.9272 154.758 72.4456C154.638 73.6334 154.72 74.8329 155.001 75.9932C155.74 78.9203 157.622 80.132 157.622 80.132Z" fill="#DB8B8B"/>
<path opacity="0.1" d="M155.001 76.0029C154.193 76.6521 153.243 77.1008 152.229 77.3122C151.215 77.5237 150.165 77.4919 149.166 77.2195C148.581 77.0622 148.021 76.8256 147.5 76.5163C147.349 75.546 147.084 74.597 146.71 73.689C146.71 73.689 155.249 66.9296 154.748 72.4481C154.631 73.6388 154.716 74.8409 155.001 76.0029Z" fill="black"/>
<path d="M157.324 72.2506C158.268 68.7419 156.191 65.1316 152.685 64.1869C149.178 63.2421 145.571 65.3206 144.627 68.8293C143.683 72.338 145.76 75.9482 149.266 76.893C152.772 77.8377 156.38 75.7593 157.324 72.2506Z" fill="#DB8B8B"/>
<path opacity="0.1" d="M147.673 67.3311C147.492 67.4413 147.292 67.514 147.082 67.5446C146.873 67.5753 146.66 67.5633 146.456 67.5095C146.251 67.4556 146.06 67.361 145.893 67.2312C145.726 67.1015 145.587 66.9393 145.484 66.7544C145.394 66.5895 145.355 66.4014 145.373 66.2142C145.428 65.7909 145.847 65.5281 146.102 65.1777C146.498 64.6108 146.423 63.8346 146.71 63.2044C146.907 62.8195 147.192 62.4862 147.541 62.2311C148.252 61.6752 149.084 61.2955 149.969 61.1229C150.855 60.9504 151.768 60.99 152.635 61.2384C153.345 61.47 154.025 61.7827 154.663 62.1703C156.491 63.2141 158.293 64.4915 159.283 66.3481C159.483 66.6887 159.611 67.0674 159.657 67.46C159.668 67.8842 159.594 68.3062 159.438 68.701C159.073 69.7914 158.563 70.8282 157.924 71.7838C157.71 71.5179 157.441 71.3013 157.136 71.1487C156.982 71.0759 156.809 71.0533 156.641 71.0843C156.474 71.1153 156.32 71.1983 156.202 71.3215C155.991 71.5916 155.862 72.1074 155.541 71.9857C155.332 71.9079 155.334 71.6183 155.344 71.3945C155.388 70.4212 154.858 69.5039 154.145 68.8469C153.433 68.19 152.55 67.7569 151.68 67.3311C151.055 67.0245 150.221 66.3213 149.535 66.1972C148.684 66.0391 148.283 66.9539 147.673 67.3311Z" fill="black"/>
<path d="M147.763 66.9977C147.582 67.108 147.381 67.1806 147.172 67.2113C146.963 67.2419 146.75 67.23 146.546 67.1761C146.341 67.1223 146.15 67.0276 145.983 66.8978C145.816 66.7681 145.677 66.6059 145.574 66.421C145.484 66.2561 145.445 66.068 145.463 65.8809C145.518 65.4575 145.937 65.1947 146.192 64.8443C146.588 64.2774 146.513 63.5012 146.8 62.871C146.997 62.4861 147.282 62.1528 147.631 61.8977C148.342 61.3418 149.174 60.9621 150.059 60.7896C150.944 60.617 151.858 60.6566 152.725 60.905C153.435 61.1366 154.115 61.4493 154.753 61.8369C156.581 62.8807 158.383 64.1582 159.373 66.0147C159.573 66.3554 159.701 66.734 159.747 67.1267C159.758 67.5508 159.684 67.9728 159.528 68.3676C159.163 69.458 158.653 70.4948 158.014 71.4504C157.8 71.1845 157.531 70.9679 157.226 70.8154C157.072 70.7425 156.899 70.72 156.731 70.751C156.563 70.782 156.41 70.8649 156.292 70.9881C156.081 71.2582 155.952 71.774 155.631 71.6524C155.422 71.5745 155.424 71.285 155.434 71.0611C155.478 70.0878 154.947 69.1705 154.235 68.5136C153.523 67.8566 152.64 67.4235 151.77 66.9977C151.145 66.6911 150.311 65.9879 149.625 65.8638C148.774 65.7032 148.373 66.6205 147.763 66.9977Z" fill="#472727"/>
<path d="M151.206 81.0031C151.206 81.0031 156.406 79.9836 156.633 79.149L162.58 83.3511C162.58 83.3511 166.159 87.3634 164.328 93.5048C164.328 93.5048 162.838 106.374 159.939 111.15C157.041 115.927 155.375 122.114 151.405 123.559C151.405 123.559 147.588 121.097 146.328 121.126C146.328 121.126 152.793 111.751 153.07 108.06C153.348 104.369 156.302 98.7093 155.655 95.1277L146.902 122.355C146.902 122.355 132.8 120.165 131.37 115.481C131.37 115.481 132.586 113.654 132.36 111.802C132.133 109.951 137.68 96.0207 137.68 96.0207L140.335 81.4946C140.335 81.4946 145.587 77.8229 147.678 78.7767C147.668 78.7621 147.289 80.5748 151.206 81.0031Z" fill="#DDE0E4"/>
<g opacity="0.1">
<path d="M153.1 69.7082C151.816 67.9563 149.367 69.3943 148.966 69.6449L148.336 69.5817C147.787 68.9831 146.102 67.3918 144.519 68.5622L144.451 68.6133L144.356 70.8591L144.424 70.9126C144.881 71.2658 145.4 71.5315 145.954 71.6961C146.304 71.7992 146.674 71.8176 147.033 71.7496C147.299 71.6883 147.548 71.5693 147.763 71.4012C147.977 71.233 148.152 71.0197 148.276 70.7764L148.604 70.7983L148.847 70.752C148.896 71.0108 148.999 71.2562 149.15 71.4719C149.301 71.6875 149.496 71.8685 149.722 72.0027C150.809 72.6183 152.397 72.0027 152.463 71.9905L152.545 71.9589L153.129 69.7861L153.1 69.7082ZM152.275 71.6839C151.952 71.7934 150.731 72.1535 149.912 71.6839C149.708 71.556 149.536 71.3828 149.41 71.1777C149.283 70.9727 149.205 70.7413 149.183 70.5014L149.153 70.3238L148.621 70.4333L148.086 70.4138L148.035 70.516C147.937 70.737 147.79 70.9327 147.605 71.088C147.42 71.2432 147.202 71.3539 146.968 71.4114C146.051 71.6085 144.991 70.898 144.714 70.6961L144.794 68.7982C146.17 67.8711 147.687 69.3749 148.125 69.8664L148.171 69.9175L149.059 70.005L149.112 69.9686C149.136 69.954 151.342 68.4721 152.599 69.6644C152.661 69.7222 152.719 69.7849 152.771 69.8518L152.275 71.6839Z" fill="black"/>
<path d="M157.082 70.8372L152.949 70.4942L152.608 70.4285L152.762 69.8542C152.709 69.7874 152.651 69.7247 152.589 69.6669L153.09 69.7155L156.472 70.0465L157.082 70.8372Z" fill="black"/>
</g>
<path d="M153.143 69.5526C151.86 67.8007 149.411 69.2387 149.01 69.4893L148.38 69.426C147.831 68.8275 146.146 67.2362 144.563 68.4065L144.495 68.4576L144.4 70.7035L144.468 70.757C144.925 71.1102 145.444 71.3758 145.997 71.5405C146.348 71.6436 146.718 71.6619 147.077 71.594C147.343 71.5327 147.592 71.4137 147.806 71.2455C148.021 71.0774 148.196 70.8641 148.319 70.6207L148.648 70.6426L148.891 70.5964C148.94 70.8552 149.043 71.1006 149.194 71.3162C149.345 71.5319 149.54 71.7129 149.766 71.8471C150.853 72.4627 152.441 71.8471 152.506 71.8349L152.589 71.8033L153.173 69.6304L153.143 69.5526ZM152.319 71.5283C151.996 71.6378 150.775 71.9979 149.956 71.5283C149.752 71.4003 149.58 71.2271 149.453 71.0221C149.327 70.8171 149.249 70.5857 149.226 70.3458L149.197 70.1682L148.665 70.2777L148.137 70.2436L148.086 70.3458C147.99 70.5681 147.844 70.7653 147.66 70.9223C147.476 71.0792 147.258 71.1917 147.024 71.2509C146.107 71.448 145.047 70.7375 144.77 70.5356L144.85 68.6377C146.226 67.7106 147.743 69.2143 148.181 69.7059L148.227 69.757L149.115 69.8445L149.168 69.808C149.192 69.7935 151.398 68.3116 152.655 69.5039C152.717 69.5617 152.775 69.6244 152.827 69.6913L152.319 71.5283Z" fill="#472727"/>
<path d="M157.121 70.6816L153.002 70.3385L152.662 70.2728L152.815 69.6986C152.763 69.6317 152.705 69.5691 152.643 69.5112L153.143 69.5599L156.526 69.8908L157.121 70.6816Z" fill="#472727"/>
<path d="M128.875 96.3054H56.6863V125.448H128.875V96.3054Z" fill="#6F7D95"/>
<path d="M89.7246 144.533C100.85 144.533 109.869 134.656 109.869 122.472C109.869 110.287 100.85 100.41 89.7246 100.41C78.5991 100.41 69.5802 110.287 69.5802 122.472C69.5802 134.656 78.5991 144.533 89.7246 144.533Z" fill="#4B5C7A"/>
<path opacity="0.05" d="M89.7246 144.533C100.85 144.533 109.869 134.656 109.869 122.472C109.869 110.287 100.85 100.41 89.7246 100.41C78.5991 100.41 69.5802 110.287 69.5802 122.472C69.5802 134.656 78.5991 144.533 89.7246 144.533Z" fill="black"/>
<path d="M94.2008 144.533C105.326 144.533 114.345 134.656 114.345 122.472C114.345 110.287 105.326 100.41 94.2008 100.41C83.0753 100.41 74.0564 110.287 74.0564 122.472C74.0564 134.656 83.0753 144.533 94.2008 144.533Z" fill="#4B5C7A"/>
<path opacity="0.05" d="M93.7534 131.543C98.6978 131.543 102.706 127.532 102.706 122.584C102.706 117.636 98.6978 113.625 93.7534 113.625C88.8091 113.625 84.8009 117.636 84.8009 122.584C84.8009 127.532 88.8091 131.543 93.7534 131.543Z" fill="black"/>
<path d="M93.7534 125.272C95.2372 125.272 96.4401 124.069 96.4401 122.584C96.4401 121.099 95.2372 119.895 93.7534 119.895C92.2695 119.895 91.0667 121.099 91.0667 122.584C91.0667 124.069 92.2695 125.272 93.7534 125.272Z" stroke="#6F7D95" stroke-width="2" stroke-miterlimit="10"/>
<path d="M93.7534 118.552C94.124 118.552 94.4244 118.251 94.4244 117.88C94.4244 117.51 94.124 117.209 93.7534 117.209C93.3827 117.209 93.0823 117.51 93.0823 117.88C93.0823 118.251 93.3827 118.552 93.7534 118.552Z" fill="#6F7D95"/>
<path d="M97.8569 119.692C98.1408 119.453 98.1778 119.03 97.9396 118.746C97.7014 118.461 97.2781 118.424 96.9942 118.663C96.7103 118.901 96.6732 119.325 96.9115 119.609C97.1497 119.893 97.573 119.93 97.8569 119.692Z" fill="#6F7D95"/>
<path d="M99.4592 122.944C99.5235 122.578 99.2798 122.23 98.9148 122.166C98.5498 122.101 98.2018 122.345 98.1374 122.71C98.073 123.076 98.3168 123.424 98.6818 123.488C99.0467 123.553 99.3948 123.309 99.4592 122.944Z" fill="#6F7D95"/>
<path d="M97.2154 126.806C97.5363 126.621 97.6463 126.21 97.461 125.889C97.2757 125.568 96.8653 125.458 96.5443 125.643C96.2233 125.829 96.1134 126.239 96.2987 126.56C96.484 126.882 96.8944 126.992 97.2154 126.806Z" fill="#6F7D95"/>
<path d="M93.6821 127.17C93.8089 126.821 93.6293 126.436 93.2811 126.309C92.9328 126.182 92.5477 126.362 92.4209 126.71C92.2942 127.059 92.4737 127.444 92.822 127.571C93.1703 127.698 93.5554 127.518 93.6821 127.17Z" fill="#6F7D95"/>
<path d="M90.271 125.096C90.6193 124.969 90.7989 124.584 90.6721 124.235C90.5454 123.887 90.1603 123.707 89.812 123.834C89.4637 123.961 89.2842 124.346 89.4109 124.694C89.5377 125.043 89.9228 125.223 90.271 125.096Z" fill="#6F7D95"/>
<path d="M90.5841 120.9C90.7694 120.579 90.6594 120.168 90.3384 119.983C90.0175 119.798 89.607 119.908 89.4217 120.229C89.2364 120.55 89.3464 120.961 89.6674 121.146C89.9883 121.332 90.3987 121.222 90.5841 120.9Z" fill="#6F7D95"/>
<path d="M238.946 105.423C238.258 110.177 236.344 115.382 236.344 115.382C236.357 115.057 236.366 114.737 236.369 114.42C236.369 114.012 236.369 113.608 236.369 113.204C236.126 100.099 228.989 92.0133 224.387 88.1421C223.19 87.1219 221.904 86.213 220.543 85.4266H233.052C233.052 85.4266 237.974 95.483 239 100.408C239.296 101.79 239.214 103.573 238.946 105.423Z" fill="#FF4D52"/>
<path opacity="0.05" d="M238.946 105.423C238.258 110.177 236.344 115.382 236.344 115.382C236.357 115.057 236.366 114.737 236.369 114.42C236.369 114.012 236.369 113.608 236.369 113.204C236.126 100.099 228.989 92.0133 224.387 88.1421C223.19 87.1219 221.904 86.213 220.543 85.4266H233.052C233.052 85.4266 237.974 95.483 239 100.408C239.296 101.79 239.214 103.573 238.946 105.423Z" fill="black"/>
<path d="M217.618 122.628C226.079 122.628 232.938 115.115 232.938 105.848C232.938 96.5814 226.079 89.0691 217.618 89.0691C209.156 89.0691 202.297 96.5814 202.297 105.848C202.297 115.115 209.156 122.628 217.618 122.628Z" fill="#4B5C7A"/>
<path opacity="0.05" d="M217.618 122.628C226.079 122.628 232.938 115.115 232.938 105.848C232.938 96.5814 226.079 89.0691 217.618 89.0691C209.156 89.0691 202.297 96.5814 202.297 105.848C202.297 115.115 209.156 122.628 217.618 122.628Z" fill="black"/>
<path d="M221.022 122.628C229.483 122.628 236.342 115.115 236.342 105.848C236.342 96.5814 229.483 89.0691 221.022 89.0691C212.56 89.0691 205.701 96.5814 205.701 105.848C205.701 115.115 212.56 122.628 221.022 122.628Z" fill="#4B5C7A"/>
<path opacity="0.05" d="M220.681 112.746C224.441 112.746 227.489 109.696 227.489 105.934C227.489 102.171 224.441 99.1206 220.681 99.1206C216.921 99.1206 213.873 102.171 213.873 105.934C213.873 109.696 216.921 112.746 220.681 112.746Z" fill="black"/>
<path d="M220.681 107.977C221.809 107.977 222.724 107.062 222.724 105.934C222.724 104.805 221.809 103.89 220.681 103.89C219.553 103.89 218.639 104.805 218.639 105.934C218.639 107.062 219.553 107.977 220.681 107.977Z" stroke="#6F7D95" stroke-width="2" stroke-miterlimit="10"/>
<path d="M220.681 102.868C220.963 102.868 221.192 102.639 221.192 102.357C221.192 102.074 220.963 101.846 220.681 101.846C220.399 101.846 220.171 102.074 220.171 102.357C220.171 102.639 220.399 102.868 220.681 102.868Z" fill="#6F7D95"/>
<path d="M223.804 103.734C224.02 103.553 224.048 103.23 223.867 103.014C223.685 102.798 223.363 102.77 223.147 102.951C222.931 103.132 222.903 103.455 223.084 103.671C223.266 103.887 223.588 103.915 223.804 103.734Z" fill="#6F7D95"/>
<path d="M225.02 106.209C225.069 105.931 224.884 105.666 224.606 105.617C224.329 105.568 224.064 105.754 224.015 106.032C223.966 106.31 224.151 106.575 224.429 106.624C224.707 106.673 224.972 106.487 225.02 106.209Z" fill="#6F7D95"/>
<path d="M223.316 109.146C223.56 109.005 223.644 108.693 223.503 108.448C223.362 108.204 223.05 108.12 222.806 108.261C222.561 108.402 222.478 108.715 222.619 108.959C222.76 109.204 223.072 109.287 223.316 109.146Z" fill="#6F7D95"/>
<path d="M220.628 109.422C220.725 109.157 220.588 108.864 220.323 108.767C220.058 108.671 219.765 108.807 219.669 109.073C219.572 109.338 219.709 109.631 219.974 109.727C220.239 109.824 220.532 109.687 220.628 109.422Z" fill="#6F7D95"/>
<path d="M218.033 107.843C218.298 107.746 218.435 107.453 218.338 107.188C218.242 106.923 217.949 106.786 217.684 106.882C217.419 106.979 217.282 107.272 217.378 107.537C217.475 107.802 217.768 107.939 218.033 107.843Z" fill="#6F7D95"/>
<path d="M218.274 104.653C218.415 104.408 218.331 104.096 218.087 103.955C217.843 103.814 217.531 103.897 217.39 104.142C217.249 104.386 217.332 104.699 217.576 104.84C217.821 104.981 218.133 104.897 218.274 104.653Z" fill="#6F7D95"/>
<path d="M8.18661 124.73L6.33386 110.157H28.2775L39.5569 120.214L34.0205 133.144C34.0205 133.144 11.683 129.45 8.18661 124.73Z" fill="#FF4D52"/>
<path opacity="0.05" d="M39.5642 120.214L34.0279 133.144C34.0279 133.144 11.6831 129.45 8.18666 124.73L8.10642 124.095L6.40442 110.62L6.3874 110.486L6.34607 110.16H28.2897L39.5642 120.214Z" fill="black"/>
<path d="M130.417 65.4185V70.1389C130.417 70.1389 119.077 79.385 116.378 88.108C115.907 89.5244 115.729 91.0221 115.855 92.5096C116.881 102.155 86.3278 84.7088 86.3278 84.7088L87.6869 84.047C94.7113 80.6575 126.767 65.2336 130.417 65.4185Z" fill="#7597CE"/>
<path d="M156.258 88.2005C156.258 88.2005 166.879 82.9789 168.583 79.115C168.812 78.5967 169.028 78.0736 169.281 77.5651C170.334 75.4458 172.546 70.4748 171.433 68.0878C169.998 65.0098 174.919 68.499 174.919 68.499L172.048 83.0665L165.074 86.9596L156.051 88.2005" fill="#FF4D52"/>
<path opacity="0.05" d="M156.258 88.2005C156.258 88.2005 166.879 82.9789 168.583 79.115C168.812 78.5967 169.028 78.0736 169.281 77.5651C170.334 75.4458 172.546 70.4748 171.433 68.0878C169.998 65.0098 174.919 68.499 174.919 68.499L172.048 83.0665L165.074 86.9596L156.051 88.2005" fill="black"/>
<path opacity="0.05" d="M39.5642 120.214L34.0278 133.144C34.0278 133.144 11.683 129.45 8.18663 124.73L8.10639 124.095C8.19636 124.034 8.29118 123.971 8.39087 123.91C8.39087 123.91 15.1575 129.246 30.5412 130.479C30.5412 130.479 39.7806 123.09 24.7981 114.883C24.7981 114.883 11.7657 115.292 6.3971 110.622L6.33875 110.574L6.38008 110.488C6.41574 110.419 6.47329 110.31 6.55271 110.162H28.2824L39.5642 120.214Z" fill="black"/>
<path opacity="0.05" d="M115.855 92.5072C116.881 102.155 86.3278 84.7088 86.3278 84.7088L87.6869 84.047C88.5866 85.0057 92.1778 88.2394 99.3578 87.889C103.977 87.6627 110.992 87.8695 116.39 88.1055C115.915 89.5212 115.733 91.0188 115.855 92.5072Z" fill="black"/>
<path opacity="0.05" d="M128.878 96.3054V125.448H115.466C116.351 118.669 115.84 108.788 107.238 103.123C104.03 101.024 100.304 99.8534 96.4729 99.7392C92.6415 99.625 88.853 100.572 85.5254 102.476C79.887 105.698 73.5823 112.248 69.5753 125.448H56.6887V96.3054H128.878Z" fill="black"/>
<path opacity="0.05" d="M238.946 105.423C238.44 108.639 237.628 111.763 236.371 114.425C236.209 114.784 236.032 115.133 235.841 115.474C235.873 115.355 236.104 114.523 236.371 113.214C237.674 106.839 239.904 89.1981 224.965 88.1907C224.771 88.1786 224.579 88.1664 224.387 88.1591C223.191 87.1331 221.904 86.2184 220.543 85.4266H233.052C233.052 85.4266 237.974 95.483 239 100.408C239.296 101.79 239.214 103.573 238.946 105.423Z" fill="black"/>
<path d="M236.247 115.274C236.442 114.571 243.371 89.2078 225.371 87.9936C207.119 86.7624 204.862 100.512 202.813 119.189C202.813 119.189 145.188 123.499 114.216 132.531C114.216 132.531 121.652 112.141 107.651 102.919C104.443 100.82 100.718 99.649 96.8862 99.5348C93.0549 99.4206 89.2664 100.368 85.9388 102.272C79.0336 106.218 71.1242 115.167 67.6642 135.197H33.2061C33.2061 135.197 26.6412 135.609 24.3873 132.521C24.3873 132.521 15.1478 132.725 9.41697 127.8C9.41697 127.8 3.26546 126.569 8.18667 123.491C8.18667 123.491 15.16 128.827 30.5412 130.061C30.5412 130.061 39.7806 122.671 24.7982 114.464C24.7982 114.464 11.6685 114.875 6.34121 110.155C6.34121 110.155 8.21098 106.284 12.4781 101.6C18.3146 95.1752 25.7513 90.4167 34.0279 87.8111C39.6048 86.0858 45.4177 85.2467 51.2545 85.3244L87.4512 84.1954C87.4512 84.1954 90.9476 88.7114 99.3457 88.3002C107.744 87.889 124.161 88.9158 124.161 88.9158H124.324L158.101 87.3853C159.071 87.2483 160.03 87.045 160.973 86.777C165.87 85.4461 175.158 81.4094 173.482 70.1365L226.599 73.4213C228.601 73.5133 230.59 73.7944 232.539 74.2607C235.267 74.9615 237.762 76.2413 237.059 78.5529C235.625 83.2732 239.52 83.8888 239.52 83.8888C239.52 83.8888 239.603 84.519 239.705 85.6139C240.191 90.7772 241.147 106.301 236.247 115.274Z" fill="#FF4D52"/>
<path opacity="0.05" d="M73.8133 92.714C73.8133 92.714 51.663 92.9184 37.0988 105.853H45.3024C45.3024 105.853 68.2721 99.9016 73.8084 95.1812L73.8133 92.714Z" fill="black"/>
<path d="M73.6066 92.5072C73.6066 92.5072 51.4563 92.7116 36.8921 105.646H45.0957C45.0957 105.646 68.0654 99.6948 73.6018 94.9744L73.6066 92.5072Z" fill="#FFEC9F"/>
<path opacity="0.05" d="M34.2321 88.0179V93.534L15.5734 102.155L12.6848 101.807C18.5206 95.3824 25.9564 90.624 34.2321 88.0179Z" fill="black"/>
<path d="M34.0254 87.8136V93.3296L15.3642 101.948L12.4757 101.6C18.3124 95.1761 25.7491 90.4185 34.0254 87.8136Z" fill="#FFEC9F"/>
<path opacity="0.05" d="M60.4818 112.827C60.4818 112.827 50.4327 118.983 49.4066 132.535H55.1496C55.1496 132.535 57.406 117.759 63.9684 112.827H60.4818Z" fill="black"/>
<path opacity="0.05" d="M179.228 113.238L127.134 119.394C127.134 119.394 123.689 97.4466 124.326 88.9086L158.104 87.3781C159.072 87.2433 160.031 87.0425 160.973 86.7771V88.8137L186.403 82.6577C186.403 82.6577 190.711 89.0181 179.228 113.238Z" fill="black"/>
<path d="M173.485 64.1849C173.485 64.1849 184.56 62.7493 189.481 72.1901L173.643 71.5793L173.485 64.1849Z" fill="#FF4D52"/>
<path opacity="0.05" d="M188.713 75.4992C188.278 76.8642 188.606 78.3655 191.127 79.4045C193.226 80.2707 195.686 79.2682 196.403 77.1148C196.822 75.8593 196.535 74.4383 194.273 73.2826C192.012 72.1268 189.474 73.1147 188.713 75.4992Z" fill="black"/>
<path d="M6.73022 113.233C6.73022 113.233 19.8745 120.046 29.3085 117.467" stroke="#FF4D52" stroke-miterlimit="10"/>
<path d="M7.19458 116.912C7.19458 116.912 15.6876 123.467 32.8534 121.944" stroke="#FF4D52" stroke-miterlimit="10"/>
<path d="M7.58606 120C7.58606 120 16.011 127.316 33.3227 124.998" stroke="#FF4D52" stroke-miterlimit="10"/>
<path opacity="0.05" d="M188.846 71.0879C188.846 71.0879 181.995 77.0078 175.741 79.6843C175.741 79.6843 185.238 81.3754 188.846 71.0879Z" fill="black"/>
<path opacity="0.1" d="M116.259 88.5118C116.259 88.5118 148.772 91.5849 161.075 88.7114C161.075 88.7114 161.731 89.1469 157.814 87.3901L116.259 88.5118Z" fill="black"/>
<path opacity="0.05" d="M239.707 85.614C237.682 84.283 234.47 81.5214 234.907 78.4482C235.126 76.908 234.037 75.4676 232.542 74.2583C235.27 74.9591 237.764 76.2389 237.062 78.5504C235.627 83.2708 239.522 83.8864 239.522 83.8864C239.522 83.8864 239.602 84.519 239.707 85.614Z" fill="black"/>
<path d="M76.2933 107.036C76.3128 106.223 76.2933 105.379 76.2326 104.603C76.2326 104.454 76.2082 104.311 76.1937 104.169C76.6508 104.515 76.9231 104.778 76.9231 104.778L76.5219 83.6479L74.3093 72.5794C74.3093 64.7299 70.0859 62.5182 70.0859 62.5182C70.0859 62.5182 67.8733 61.5108 67.2703 60.1044C66.6673 58.6981 61.323 55.7247 61.3206 55.7247C61.2783 55.2125 61.262 54.6984 61.272 54.1845C61.272 54.0507 61.272 53.912 61.2841 53.7733C62.6239 52.8843 63.5958 51.5389 64.0193 49.987C64.4428 48.4351 64.2891 46.7821 63.5867 45.335C63.8833 45.335 64.1241 45.2109 64.2359 44.7705C64.5909 43.3763 64.2481 41.2765 63.4408 40.1621C63.2682 39.929 63.0736 39.7131 62.8597 39.5173C62.6092 39.2657 62.3454 39.0278 62.0695 38.8044C61.379 38.2301 60.6106 37.6267 59.7548 37.6754C59.2692 37.739 58.8027 37.9048 58.3859 38.162C56.2478 39.2878 54.1155 40.4232 51.9888 41.5685C51.2034 41.9943 50.3938 42.442 49.8443 43.206C49.2948 43.97 49.0735 44.9482 48.9203 45.9093C48.7915 46.5604 48.7612 47.2273 48.8304 47.8874C48.8947 48.4882 49.1695 49.0468 49.606 49.4641C49.694 49.5706 49.7944 49.6662 49.9051 49.7488C50.3379 50.0651 50.8947 50.143 51.3469 50.3985C51.6888 51.3919 52.2612 52.29 53.0173 53.019C53.0173 53.1431 53.0003 53.2623 52.9905 53.3986C52.9638 53.7465 52.9225 54.1285 52.869 54.5154C52.869 54.5154 51.3834 54.4765 49.1708 57.4936C46.9582 60.5108 42.1318 60.9147 42.1318 60.9147C42.1318 60.9147 40.3228 60.1093 38.312 69.1656C36.3012 78.2219 35.6982 84.2514 36.7024 85.2636C37.1288 85.6319 37.6094 85.9322 38.1272 86.1541C39.8318 87.0151 41.6659 87.5905 43.5566 87.8573C43.5807 87.9299 43.6215 87.9957 43.6757 88.0496L43.8192 89.8039C43.9408 93.5072 44.0818 100.936 43.3329 102.583C42.3263 104.797 43.5347 106.206 43.5347 106.206L43.7779 106.189C43.8228 106.265 43.8732 106.339 43.9286 106.408L44.9012 106.342C44.8307 110.479 44.641 116.216 44.1402 117.476C43.3353 119.489 44.1402 130.557 44.1402 130.557L42.7324 150.48C42.7324 150.48 41.9616 160.88 42.6837 162.084C42.2898 164.247 41.5823 168.369 41.7282 169.396C41.93 170.805 46.5546 172.817 46.5546 172.817C46.5546 172.817 51.9839 174.033 54.5977 173.622C55.9642 173.41 56.5064 172.486 56.5113 171.676C58.2838 171.96 60.5912 172.233 62.0379 172.009C64.6517 171.607 64.2505 168.588 62.8427 168.79C61.4349 168.992 59.8253 166.16 58.629 164.751C58.0212 164.04 57.5154 162.77 57.1702 161.683C57.4245 161.644 57.6579 161.52 57.8315 161.33C58.4345 160.322 59.4411 151.067 59.4411 151.067L62.0549 134.969C62.0549 134.969 63.4627 127.119 64.6687 125.309C65.5805 123.941 66.7208 113.737 67.2241 108.822H67.2679H67.2825L67.336 108.649L68.0921 106.206C68.4958 106.919 69.5121 107.272 70.6962 107.423C70.5698 107.938 70.4652 108.359 70.4044 108.6C70.1029 109.817 74.4989 111.819 75.5591 110.814C76.004 110.393 76.235 108.868 76.2885 107.199H76.3249L76.2933 107.036ZM49.8735 161.914C49.8054 162.305 49.7373 162.714 49.6692 163.13C49.516 162.644 49.3945 162.206 49.3118 161.882C49.5112 161.889 49.6984 161.899 49.8735 161.914Z" fill="url(#paint2_linear_37_19)"/>
<path d="M56.6157 157.719C56.6157 157.719 57.3914 161.208 58.5609 162.563C59.7304 163.919 61.2719 166.632 62.6262 166.439C63.9805 166.247 64.3696 169.152 61.8506 169.539C59.3316 169.926 54.1041 168.763 54.1041 168.763C54.1041 168.763 49.6497 166.817 49.4576 165.469C49.2655 164.121 50.6199 157.135 50.6199 157.135L56.6157 157.719Z" fill="#53526B"/>
<path opacity="0.05" d="M56.6157 157.719C56.6157 157.719 57.3914 161.208 58.5609 162.563C59.7304 163.919 61.2719 166.632 62.6262 166.439C63.9805 166.247 64.3696 169.152 61.8506 169.539C59.3316 169.926 54.1041 168.763 54.1041 168.763C54.1041 168.763 49.6497 166.817 49.4576 165.469C49.2655 164.121 50.6199 157.135 50.6199 157.135L56.6157 157.719Z" fill="black"/>
<path d="M49.4503 159.269C49.4503 159.269 50.226 162.758 51.3955 164.113C52.565 165.469 54.1065 168.182 55.4608 167.989C56.8151 167.797 57.2042 170.702 54.6852 171.089C52.1662 171.476 46.9387 170.316 46.9387 170.316C46.9387 170.316 42.4843 168.369 42.2922 167.021C42.1001 165.673 43.4544 158.687 43.4544 158.687L49.4503 159.269Z" fill="#53526B"/>
<path d="M67.0733 106.172C67.0733 106.172 65.5245 122.837 64.3623 124.581C63.2 126.326 61.8457 133.883 61.8457 133.883L59.3292 149.385C59.3292 149.385 58.3566 158.3 57.7804 159.269C57.2041 160.237 50.0168 159.821 50.0168 159.821L54.4761 108.498L67.0733 106.172Z" fill="#5F5D7E"/>
<path opacity="0.05" d="M67.0733 106.172C67.0733 106.172 65.5245 122.837 64.3623 124.581C63.2 126.326 61.8457 133.883 61.8457 133.883L59.3292 149.385C59.3292 149.385 58.3566 158.3 57.7804 159.269C57.2041 160.237 50.0168 159.821 50.0168 159.821L54.4761 108.498L67.0733 106.172Z" fill="black"/>
<path d="M70.171 98.2275L69.6652 99.8359L66.9299 108.525L66.8764 108.69H66.8618C66.4947 108.773 58.7433 110.556 57.0705 111.104C56.9802 111.132 56.8917 111.165 56.8054 111.204C56.0298 111.591 55.0621 125.542 55.0621 125.542C55.0621 125.542 54.481 138.721 54.0895 139.689C53.6981 140.657 52.1444 160.614 51.184 160.035C50.2236 159.456 43.2454 160.035 43.2454 160.035C42.4697 159.259 43.2454 148.796 43.2454 148.796L44.5997 129.611C44.5997 129.611 43.824 118.953 44.5997 117.014C45.3753 115.075 45.3753 102.094 45.3753 102.094L61.2355 99.6364L62.7673 99.393L70.171 98.2275Z" fill="#5F5D7E"/>
<path opacity="0.02" d="M69.6653 99.836L66.9299 108.525L66.8643 108.695C66.4971 108.778 58.7457 110.561 57.0729 111.109H56.9052L61.2355 99.6365L61.3595 99.3055L62.7673 99.3956L69.6653 99.836Z" fill="black"/>
<path opacity="0.1" d="M51.5802 59.4718C51.5802 59.4718 58.7457 67.2239 63.2 60.8271L67.4599 63.7347L66.6843 68.1923L69.2008 101.911C69.2008 101.911 62.6165 101.717 57.97 103.267C56.6759 103.726 55.2776 103.806 53.9397 103.497C52.6018 103.188 51.38 102.503 50.418 101.522L51.1937 71.8737L49.4503 62.7663L51.5802 59.4718Z" fill="black"/>
<path d="M51.5803 58.8904C51.5803 58.8904 58.7457 66.6425 63.2 60.2457L67.4599 63.1533L66.6843 67.6109L69.2032 101.34C69.2032 101.34 62.6189 101.145 57.9725 102.695C56.6784 103.154 55.2801 103.234 53.9422 102.925C52.6042 102.616 51.3824 101.931 50.4205 100.95L51.1961 71.302L49.4528 62.1946L51.5803 58.8904Z" fill="#53526B"/>
<path d="M65.882 93.4124V94.6314H66.2734V93.8187H67.6958V94.6314H68.0873V93.4148L65.882 93.4124Z" fill="#E82127"/>
<path d="M66.2321 93.0182H67.7347C67.8332 92.9946 67.9233 92.9445 67.9953 92.8733C68.0673 92.8021 68.1185 92.7125 68.1432 92.6143H65.826C65.851 92.7124 65.9023 92.8018 65.9742 92.873C66.0462 92.9441 66.1362 92.9943 66.2345 93.0182" fill="#E82127"/>
<path d="M64.7002 94.6314C64.7854 94.5983 64.8612 94.5449 64.9209 94.4757C64.9807 94.4066 65.0226 94.3239 65.0431 94.2348H63.29V92.6143H62.8961V94.6314H64.6978" fill="#E82127"/>
<path d="M59.9785 93.0109H61.3668C61.4657 92.986 61.5567 92.9366 61.6314 92.8673C61.7062 92.798 61.7624 92.711 61.7948 92.6143H59.5822V93.7968H61.3863V94.2153H59.9712C59.8632 94.2439 59.7625 94.2952 59.6757 94.3657C59.589 94.4361 59.5181 94.5242 59.4679 94.6241H61.7705V93.4075H59.9688V93.0084" fill="#E82127"/>
<path d="M56.5525 93.0157H58.0552C58.1536 92.9921 58.2437 92.942 58.3157 92.8708C58.3877 92.7996 58.4389 92.71 58.4636 92.6118H56.1465C56.1715 92.7099 56.2227 92.7994 56.2947 92.8705C56.3666 92.9417 56.4566 92.9919 56.555 93.0157" fill="#E82127"/>
<path d="M56.5525 93.8114H58.0552C58.1537 93.788 58.244 93.738 58.316 93.6668C58.3881 93.5955 58.4391 93.5058 58.4636 93.4075H56.1465C56.1715 93.5056 56.2227 93.595 56.2947 93.6662C56.3666 93.7374 56.4566 93.7875 56.555 93.8114" fill="#E82127"/>
<path d="M56.5525 94.6313H58.0552C58.1536 94.6077 58.2437 94.5576 58.3157 94.4864C58.3877 94.4152 58.4389 94.3256 58.4636 94.2274H56.1465C56.1715 94.3255 56.2227 94.415 56.2947 94.4861C56.3666 94.5573 56.4566 94.6075 56.555 94.6313" fill="#E82127"/>
<path d="M52.6453 92.6169C52.6709 92.7141 52.7221 92.8025 52.7935 92.8732C52.8649 92.9438 52.954 92.9939 53.0513 93.0184H53.6835L53.7151 93.0306V94.6268H54.109V93.0306L54.1455 93.0184H54.7776C54.8746 92.9932 54.9633 92.9428 55.0346 92.8723C55.1059 92.8018 55.1573 92.7137 55.1837 92.6169H52.6453Z" fill="#E82127"/>
<path d="M60.3942 88.6263L62.3661 77.5237C64.2456 77.5237 64.8389 77.7305 64.9264 78.5724C64.9264 78.5724 66.1883 78.1028 66.8229 77.1466C65.2524 76.441 63.5649 76.0327 61.8458 75.9421L60.3869 77.7159L58.9281 75.9421C57.2089 76.0326 55.5214 76.441 53.9509 77.1466C54.5855 78.1028 55.8474 78.5724 55.8474 78.5724C55.9325 77.7305 56.5258 77.5237 58.3931 77.5213L60.3821 88.6263" fill="#E82127"/>
<path d="M60.3942 75.4287C62.6816 75.4003 64.9494 75.8555 67.049 76.7645C67.2038 76.5036 67.3363 76.2301 67.4453 75.947C62.923 74.1137 57.8653 74.1137 53.343 75.947C53.4592 76.2282 53.594 76.5013 53.7466 76.7645C55.8463 75.8555 58.114 75.4003 60.4014 75.4287" fill="#E82127"/>
<path d="M66.4922 99.0013C66.4922 99.0013 66.4922 104.04 67.6544 106.172C68.8166 108.303 75.593 107.145 75.593 107.145L74.2387 99.9746L66.4922 99.0013Z" fill="#D39999"/>
<path d="M74.8563 110.63C73.8351 111.603 69.602 109.656 69.8938 108.498C70.098 107.678 70.8129 104.744 71.2189 103.079L71.5009 101.909C71.5009 101.909 73.981 101.133 74.8563 101.909C75.1748 102.191 75.3985 103.303 75.5031 104.646C75.683 106.98 75.5055 110.014 74.8563 110.63Z" fill="#FDC2CC"/>
<path d="M65.5221 62.377L58.7457 67.6084C58.7457 67.6084 48.6772 67.0268 51.1937 62.1824C52.2895 60.0518 52.9507 57.7242 53.1389 55.3354C53.2207 54.4541 53.2207 53.567 53.1389 52.6857C53.1389 52.6857 62.4342 44.1695 61.272 53.8487C61.1804 54.5917 61.1268 55.3388 61.1115 56.0873C60.9826 63.3527 65.5221 62.377 65.5221 62.377Z" fill="#FDC2CC"/>
<path opacity="0.1" d="M61.2623 53.8512C61.1707 54.5941 61.1171 55.3413 61.1018 56.0897C60.0587 56.7811 58.8347 57.1485 57.5835 57.1457C55.8499 57.1457 54.5734 55.4571 53.4209 54.3354C53.5498 52.727 53.1316 52.6881 53.1316 52.6881C53.1316 52.6881 62.4245 44.1598 61.2623 53.8512Z" fill="black"/>
<path d="M57.5835 56.7565C61.1125 56.7565 63.9733 53.8936 63.9733 50.3621C63.9733 46.8305 61.1125 43.9677 57.5835 43.9677C54.0545 43.9677 51.1937 46.8305 51.1937 50.3621C51.1937 53.8936 54.0545 56.7565 57.5835 56.7565Z" fill="#FDC2CC"/>
<path opacity="0.1" d="M53.0342 56.4669C53.0342 56.4669 51.9693 56.5643 49.8393 59.4695C47.7094 62.3747 43.0484 62.764 43.0484 62.764C43.0484 62.764 41.305 61.9878 39.3696 70.7083C37.4342 79.4289 36.8531 85.2417 37.8208 86.2102C38.7885 87.1786 42.6618 88.5363 44.5972 88.5363C44.5972 88.5363 45.1783 100.744 44.2106 102.875C43.2429 105.006 44.4051 106.364 44.4051 106.364L52.9151 105.783C52.9151 105.783 55.8206 102.101 56.4018 95.7069C56.9829 89.3125 58.9183 71.0952 57.9506 68.9638C56.9829 66.8323 52.723 61.4063 52.9151 60.8248C53.1072 60.2432 53.0342 56.4669 53.0342 56.4669Z" fill="black"/>
<path d="M53.0172 56.4085C53.0172 56.4085 51.5851 56.3695 49.4552 59.2772C47.3252 62.1849 42.6788 62.5717 42.6788 62.5717C42.6788 62.5717 40.9354 61.7955 39 70.5161C37.0646 79.2366 36.4835 85.0495 37.4561 86.0106C38.4286 86.9717 42.297 88.3367 44.2325 88.3367C44.2325 88.3367 44.8136 100.544 43.8459 102.675C42.8782 104.807 44.0404 106.165 44.0404 106.165L52.5504 105.583C52.5504 105.583 55.4559 101.902 56.037 95.5073C56.6182 89.1129 58.5536 70.8956 57.5859 68.7642C56.6182 66.6327 52.3583 61.2067 52.5504 60.6252C52.7425 60.0437 53.0172 56.4085 53.0172 56.4085Z" fill="#D39999"/>
<path d="M47.9113 81.3681C47.9113 81.3681 57.6005 70.2484 56.2389 77.8789C55.2663 83.3049 51.5924 86.2125 49.8491 86.7941C48.1058 87.3756 47.9113 81.3681 47.9113 81.3681Z" fill="#FDC2CC"/>
<path opacity="0.1" d="M75.5031 104.646C74.5767 103.938 72.8285 102.836 71.2189 103.079L71.5009 101.909C71.5009 101.909 73.981 101.133 74.8563 101.909C75.1772 102.191 75.3985 103.303 75.5031 104.646Z" fill="black"/>
<path opacity="0.1" d="M61.1649 57.6299C61.1649 57.6299 66.1032 60.8271 66.6843 62.1848C67.2654 63.5425 69.3953 64.5109 69.3953 64.5109C69.3953 64.5109 73.4607 66.6424 73.4607 74.1999L75.5906 84.8572L65.9038 98.4198C65.9038 98.4198 64.7416 84.8548 64.1605 81.5602C63.5793 78.2657 62.8062 72.0708 62.8062 72.0708C62.8062 72.0708 59.9006 68.3894 60.2896 67.421C60.6787 66.4526 61.1649 57.6299 61.1649 57.6299Z" fill="black"/>
<path d="M61.148 57.5715C61.148 57.5715 66.2978 60.4403 66.8765 61.7955C67.4551 63.1508 69.5899 64.1119 69.5899 64.1119C69.5899 64.1119 73.6553 66.2434 73.6553 73.8009L75.7852 84.4582L76.1718 104.804C76.1718 104.804 72.6851 101.51 70.1686 103.06C67.6521 104.61 66.1033 98.0208 66.1033 98.0208C66.1033 98.0208 64.941 84.4558 64.3599 81.1612C63.7788 77.8667 63.0056 71.6718 63.0056 71.6718C63.0056 71.6718 60.1001 68.005 60.4891 67.0317C60.8781 66.0585 61.148 57.5715 61.148 57.5715Z" fill="#D39999"/>
<path opacity="0.1" d="M63.1928 42.5855C62.865 42.1682 62.4859 41.7937 62.0646 41.4711C61.3984 40.9164 60.6617 40.3373 59.835 40.3859C59.3673 40.4482 58.9182 40.6091 58.5172 40.858C56.4586 41.9432 54.4056 43.0397 52.3584 44.1476C51.6022 44.5564 50.8217 44.9895 50.2941 45.7243C49.7665 46.4591 49.5525 47.4032 49.4042 48.3278C49.2801 48.9541 49.2506 49.5955 49.3167 50.2306C49.3769 50.8532 49.679 51.4272 50.1579 51.8292C50.7099 52.2307 51.466 52.2331 51.928 52.7587C52.1955 53.0628 52.3122 53.4886 52.5018 53.8585C52.6915 54.2283 53.0197 54.5884 53.3942 54.5227C53.7686 54.457 53.9947 54.0604 54.0482 53.6589C54.072 53.252 54.0484 52.8438 53.9777 52.4423C53.9048 51.7124 53.9972 50.9386 54.4202 50.396C54.712 50.0262 55.1302 49.8023 55.4123 49.4228C56.0882 48.5079 55.7794 46.9896 56.521 46.1307C56.7363 45.9062 57.0073 45.7428 57.3063 45.6573C57.6053 45.5718 57.9216 45.5673 58.223 45.644C58.8235 45.7706 59.373 46.0966 59.925 46.374C60.6706 46.7504 61.4517 47.052 62.2567 47.2743C62.9327 47.4592 63.7156 47.902 63.9466 47.0017C64.2991 45.6805 63.9587 43.6586 63.1928 42.5855Z" fill="black"/>
<path d="M62.9982 42.3909C62.6704 41.9736 62.2913 41.5992 61.8701 41.2765C61.2038 40.7218 60.4671 40.1427 59.6404 40.1913C59.1727 40.2537 58.7236 40.4145 58.3226 40.6634C56.2656 41.7486 54.5563 40.7218 52.1638 43.953C51.6532 44.6441 50.6271 44.7949 50.0995 45.5297C49.5719 46.2646 49.3579 47.2086 49.2096 48.1332C49.0855 48.7595 49.056 49.4009 49.1221 50.036C49.1824 50.6586 49.4845 51.2326 49.9634 51.6346C50.5153 52.0361 51.2715 52.0385 51.7334 52.5641C52.0009 52.8682 52.1176 53.294 52.3072 53.6639C52.4969 54.0337 52.8251 54.3938 53.1996 54.3281C53.574 54.2624 53.8001 53.8658 53.8536 53.4644C53.8775 53.0575 53.8538 52.6492 53.7831 52.2478C53.7102 51.5178 53.8026 50.7441 54.2256 50.2015C54.5174 49.8316 54.9356 49.6078 55.2177 49.2282C55.8936 48.3133 55.5848 46.795 56.3264 45.9361C56.5417 45.7116 56.8127 45.5482 57.1117 45.4628C57.4107 45.3773 57.727 45.3727 58.0284 45.4495C58.629 45.576 59.1785 45.902 59.7304 46.1794C60.476 46.5558 61.2571 46.8574 62.0621 47.0797C62.7381 47.2646 63.521 47.7074 63.752 46.8072C64.107 45.486 63.7763 43.464 62.9982 42.3909Z" fill="#865A61"/>
<path d="M45.5771 71.0977C45.5771 71.0977 45.3826 78.2682 44.4149 79.2367C43.4472 80.2051 44.996 81.3681 44.996 81.3681L48.8693 80.3949C48.8693 80.3949 47.8967 86.7893 51.9669 86.0155C51.9669 86.0155 49.2559 88.5338 46.5449 88.9232C43.8338 89.3125 44.021 88.3441 44.021 88.3441L39.9557 83.4996L45.5771 71.0977Z" fill="#D39999"/>
<path opacity="0.1" d="M45.5455 71.9688C45.5455 71.9688 42.9633 78.5578 44.9012 81.2708L49.161 80.2975C49.161 80.2975 45.2878 81.4606 45.8689 79.1345C46.45 76.8083 45.5455 71.9688 45.5455 71.9688Z" fill="black"/>
<path opacity="0.1" d="M44.1255 88.2466C44.1255 88.2466 49.7421 88.6335 51.2909 87.4705C49.2526 89.0328 46.8439 90.0389 44.3006 90.3903L44.1255 88.2466Z" fill="black"/>
<path opacity="0.1" d="M68.3352 75.8447C68.3352 75.8447 71.2408 84.7599 71.0462 86.1152C70.8517 87.4705 70.4651 102.393 70.4651 102.393L69.884 102.199L70.0785 85.9205L68.3352 75.8447Z" fill="black"/>
<path d="M190.665 101.055C190.665 101.055 194.92 109.413 191.453 113.985C187.986 118.557 191.769 131.017 191.769 131.017" stroke="#6C63FF" stroke-miterlimit="10"/>
<path d="M191.925 98.4539C191.925 100.065 190.743 101.374 190.743 101.374C190.743 101.374 189.561 100.067 189.561 98.4539C189.561 96.8407 190.743 95.5341 190.743 95.5341C190.743 95.5341 191.925 96.8431 191.925 98.4539Z" fill="#478259"/>
<path d="M192.87 101.055C192.87 101.055 188.615 109.413 192.083 113.985C195.55 118.557 191.767 131.017 191.767 131.017" stroke="#6C63FF" stroke-miterlimit="10"/>
<path d="M191.609 98.4539C191.609 100.065 192.79 101.374 192.79 101.374C192.79 101.374 193.972 100.067 193.972 98.4539C193.972 96.8407 192.79 95.5341 192.79 95.5341C192.79 95.5341 191.609 96.8431 191.609 98.4539Z" fill="#478259"/>
<path opacity="0.1" d="M191.609 98.4539C191.609 100.065 192.79 101.374 192.79 101.374C192.79 101.374 193.972 100.067 193.972 98.4539C193.972 96.8407 192.79 95.5341 192.79 95.5341C192.79 95.5341 191.609 96.8431 191.609 98.4539Z" fill="black"/>
<path d="M194.604 101.055C194.604 101.055 198.859 109.413 195.392 113.985C191.925 118.557 195.708 131.017 195.708 131.017" stroke="#6C63FF" stroke-miterlimit="10"/>
<path d="M195.864 98.4539C195.864 100.065 194.682 101.374 194.682 101.374C194.682 101.374 193.5 100.067 193.5 98.4539C193.5 96.8407 194.682 95.5341 194.682 95.5341C194.682 95.5341 195.864 96.8431 195.864 98.4539Z" fill="#478259"/>
<path d="M195.202 105.15C194.086 106.311 192.328 106.432 192.328 106.432C192.328 106.432 192.382 104.671 193.498 103.513C194.614 102.354 196.372 102.23 196.372 102.23C196.372 102.23 196.318 103.989 195.202 105.15Z" fill="#478259"/>
<path d="M195.312 110.917C194.196 112.077 192.438 112.199 192.438 112.199C192.438 112.199 192.491 110.437 193.607 109.279C194.723 108.121 196.471 107.994 196.471 107.994C196.471 107.994 196.428 109.754 195.312 110.917Z" fill="#478259"/>
<path d="M189.26 114.087C190.315 115.304 190.279 117.065 190.279 117.065C190.279 117.065 188.53 116.854 187.475 115.637C186.42 114.42 186.456 112.659 186.456 112.659C186.456 112.659 188.205 112.87 189.26 114.087Z" fill="#478259"/>
<path d="M190.24 101.792C191.582 102.683 192.017 104.391 192.017 104.391C192.017 104.391 190.274 104.654 188.934 103.773C187.594 102.892 187.157 101.174 187.157 101.174C187.157 101.174 188.898 100.902 190.24 101.792Z" fill="#478259"/>
<path opacity="0.1" d="M190.24 101.792C191.582 102.683 192.017 104.391 192.017 104.391C192.017 104.391 190.274 104.654 188.934 103.773C187.594 102.892 187.157 101.174 187.157 101.174C187.157 101.174 188.898 100.902 190.24 101.792Z" fill="black"/>
<path d="M196.809 101.055C196.809 101.055 192.554 109.413 196.022 113.985C199.489 118.557 195.706 131.017 195.706 131.017" stroke="#6C63FF" stroke-miterlimit="10"/>
<path d="M195.55 98.4539C195.55 100.065 196.732 101.374 196.732 101.374C196.732 101.374 197.913 100.067 197.913 98.4539C197.913 96.8407 196.732 95.5341 196.732 95.5341C196.732 95.5341 195.55 96.8431 195.55 98.4539Z" fill="#478259"/>
<path opacity="0.1" d="M195.55 98.4539C195.55 100.065 196.732 101.374 196.732 101.374C196.732 101.374 197.913 100.067 197.913 98.4539C197.913 96.8407 196.732 95.5341 196.732 95.5341C196.732 95.5341 195.55 96.8431 195.55 98.4539Z" fill="black"/>
<path d="M195.89 105.274C194.76 106.423 194.675 108.194 194.675 108.194C194.675 108.194 196.433 108.094 197.563 106.946C198.694 105.797 198.779 104.026 198.779 104.026C198.779 104.026 197.019 104.126 195.89 105.274Z" fill="#478259"/>
<path opacity="0.1" d="M195.89 105.274C194.76 106.423 194.675 108.194 194.675 108.194C194.675 108.194 196.433 108.094 197.563 106.946C198.694 105.797 198.779 104.026 198.779 104.026C198.779 104.026 197.019 104.126 195.89 105.274Z" fill="black"/>
<path d="M198.105 113.262C196.975 114.411 196.89 116.182 196.89 116.182C196.89 116.182 198.648 116.082 199.778 114.934C200.909 113.785 200.994 112.014 200.994 112.014C200.994 112.014 199.236 112.109 198.105 113.262Z" fill="#478259"/>
<path d="M194.845 111.503C194.845 111.503 197.405 107.464 201.001 107.367" stroke="#6C63FF" stroke-miterlimit="10"/>
<path d="M192.851 109.063C192.851 109.063 190.291 105.023 186.695 104.926" stroke="#6C63FF" stroke-miterlimit="10"/>
<path d="M192.518 114.829C192.518 114.829 195.078 110.79 198.674 110.693" stroke="#6C63FF" stroke-miterlimit="10"/>
<path d="M200.882 108.009C201.249 108.009 201.546 107.712 201.546 107.345C201.546 106.978 201.249 106.68 200.882 106.68C200.515 106.68 200.218 106.978 200.218 107.345C200.218 107.712 200.515 108.009 200.882 108.009Z" fill="#478259"/>
<path d="M186.755 105.625C187.122 105.625 187.419 105.327 187.419 104.96C187.419 104.593 187.122 104.296 186.755 104.296C186.389 104.296 186.092 104.593 186.092 104.96C186.092 105.327 186.389 105.625 186.755 105.625Z" fill="#478259"/>
<path d="M194.402 116.16C194.402 116.16 191.842 112.121 188.246 112.024" stroke="#6C63FF" stroke-miterlimit="10"/>
<path d="M188.307 112.722C188.673 112.722 188.971 112.425 188.971 112.058C188.971 111.691 188.673 111.394 188.307 111.394C187.94 111.394 187.643 111.691 187.643 112.058C187.643 112.425 187.94 112.722 188.307 112.722Z" fill="#478259"/>
<path d="M198.723 111.391C199.09 111.391 199.387 111.094 199.387 110.727C199.387 110.36 199.09 110.063 198.723 110.063C198.356 110.063 198.059 110.36 198.059 110.727C198.059 111.094 198.356 111.391 198.723 111.391Z" fill="#478259"/>
<path d="M208.558 126.158C208.558 126.158 202.387 124.922 200.741 123.275C199.095 121.628 191.689 118.754 190.867 120.805C190.045 122.856 179.758 129.871 186.746 131.105C193.734 132.338 203.204 132.752 205.261 131.927C207.318 131.102 208.558 126.158 208.558 126.158Z" fill="#A8A8A8"/>
<path opacity="0.2" d="M186.746 130.341C193.741 131.577 203.204 131.988 205.261 131.163C206.827 130.535 207.916 127.513 208.347 126.122L208.553 126.165C208.553 126.165 207.318 131.107 205.261 131.93C203.204 132.752 193.741 132.341 186.746 131.107C184.728 130.75 184.149 129.912 184.368 128.854C184.545 129.543 185.248 130.076 186.746 130.341Z" fill="black"/>
<path d="M27.5529 146.757C27.5529 146.757 29.5904 149.434 26.6119 153.449C23.6335 157.463 21.1777 160.872 22.1722 163.386C22.1722 163.386 26.6654 155.909 30.3223 155.804C33.9792 155.699 31.5745 151.254 27.5529 146.757Z" fill="#478259"/>
<path opacity="0.1" d="M27.5529 146.757C27.7305 147.015 27.8705 147.297 27.9687 147.594C31.538 151.789 33.437 155.704 30.0086 155.804C26.8138 155.896 22.9818 161.612 22.0627 163.057C22.0931 163.169 22.1296 163.278 22.1722 163.386C22.1722 163.386 26.6654 155.909 30.3223 155.804C33.9792 155.699 31.5745 151.254 27.5529 146.757Z" fill="black"/>
<path d="M31.3411 150.154C31.3411 151.093 31.2366 151.857 31.098 151.857C30.9594 151.857 30.8549 151.096 30.8549 150.154C30.8549 149.213 30.9862 149.668 31.115 149.668C31.2439 149.668 31.3411 149.217 31.3411 150.154Z" fill="#FFD037"/>
<path d="M32.6395 151.276C31.8153 151.726 31.098 152.006 31.0372 151.882C30.9764 151.758 31.5916 151.31 32.4158 150.862C33.2401 150.414 32.9143 150.741 32.9775 150.862C33.0407 150.984 33.4638 150.826 32.6395 151.276Z" fill="#FFD037"/>
<path d="M16.789 146.757C16.789 146.757 14.7515 149.434 17.73 153.449C20.7085 157.463 23.1642 160.872 22.1698 163.383C22.1698 163.383 17.6765 155.906 14.0196 155.802C10.3628 155.697 12.7674 151.254 16.789 146.757Z" fill="#478259"/>
<path opacity="0.1" d="M16.789 146.757C16.6115 147.015 16.4715 147.297 16.3732 147.594C12.8039 151.789 10.905 155.704 14.3333 155.804C17.5282 155.896 21.3601 161.612 22.2792 163.057C22.2488 163.169 22.2123 163.278 22.1698 163.386C22.1698 163.386 17.6765 155.909 14.0196 155.804C10.3628 155.699 12.7674 151.254 16.789 146.757Z" fill="black"/>
<path d="M13.0009 150.154C13.0009 151.093 13.1054 151.857 13.244 151.857C13.3826 151.857 13.4871 151.096 13.4871 150.154C13.4871 149.213 13.3558 149.668 13.227 149.668C13.0981 149.668 13.0009 149.217 13.0009 150.154Z" fill="#FFD037"/>
<path d="M11.7025 151.276C12.5267 151.726 13.244 152.006 13.3048 151.882C13.3656 151.758 12.7504 151.31 11.9262 150.862C11.1019 150.414 11.4277 150.741 11.3645 150.862C11.3013 150.984 10.8782 150.826 11.7025 151.276Z" fill="#FFD037"/>
<path d="M13.65 163.033C13.65 163.033 19.3469 162.858 21.0634 161.634C22.78 160.41 29.8166 158.957 30.2518 160.904C30.687 162.851 38.8129 170.664 32.3817 170.715C25.9506 170.766 17.4382 169.712 15.724 168.668C14.0099 167.624 13.65 163.033 13.65 163.033Z" fill="#A8A8A8"/>
<path opacity="0.2" d="M32.4985 170.04C26.0673 170.092 17.5549 169.038 15.8408 167.994C14.5351 167.199 14.0147 164.344 13.8421 163.028H13.6525C13.6525 163.028 14.0123 167.627 15.7265 168.671C17.4406 169.714 25.9531 170.77 32.3842 170.717C34.2418 170.702 34.8813 170.041 34.8472 169.062C34.5871 169.661 33.8795 170.028 32.4985 170.04Z" fill="black"/>
</g>
<defs>
<linearGradient id="paint0_linear_37_19" x1="123.198" y1="145.249" x2="123.198" y2="58.973" gradientUnits="userSpaceOnUse">
<stop stop-color="#808080" stop-opacity="0.25"/>
<stop offset="0.54" stop-color="#808080" stop-opacity="0.12"/>
<stop offset="1" stop-color="#808080" stop-opacity="0.1"/>
</linearGradient>
<linearGradient id="paint1_linear_37_19" x1="141.752" y1="123.372" x2="158.424" y2="61.4988" gradientUnits="userSpaceOnUse">
<stop stop-color="#808080" stop-opacity="0.25"/>
<stop offset="0.54" stop-color="#808080" stop-opacity="0.12"/>
<stop offset="1" stop-color="#808080" stop-opacity="0.1"/>
</linearGradient>
<linearGradient id="paint2_linear_37_19" x1="56.5793" y1="173.688" x2="56.5793" y2="37.6705" gradientUnits="userSpaceOnUse">
<stop stop-color="#808080" stop-opacity="0.25"/>
<stop offset="0.54" stop-color="#808080" stop-opacity="0.12"/>
<stop offset="1" stop-color="#808080" stop-opacity="0.1"/>
</linearGradient>
<clipPath id="clip0_37_19">
<rect width="249" height="191" fill="white"/>
</clipPath>
</defs>
</svg>
