<svg width="237" height="191" viewBox="0 0 237 191" fill="none" xmlns="http://www.w3.org/2000/svg">
<g clip-path="url(#clip0_44_181)">
<path d="M135.015 168.973C133.376 166.679 131.157 165.001 128.368 164.373C125.936 163.825 123.436 163.919 120.963 163.938L89.704 164.179C87.0268 164.199 84.4599 166.518 84.5843 169.296C84.7077 172.051 86.8343 174.435 89.704 174.413C98.8608 174.343 108.018 174.272 117.174 174.202C119.333 174.185 121.493 174.146 123.652 174.153C124.137 174.155 124.62 174.18 125.104 174.186C125.221 174.187 125.306 174.186 125.366 174.184C125.381 174.188 125.394 174.192 125.413 174.198C125.666 174.267 125.925 174.315 126.179 174.381C126.09 174.383 126.344 174.542 126.471 174.595C126.489 174.63 126.526 174.691 126.589 174.786C126.676 174.949 126.933 175.444 126.944 175.428C127.331 176.407 127.65 177.411 127.9 178.433C128.495 180.687 128.625 181.158 128.711 183.272C128.819 185.944 130.988 188.517 133.831 188.39C136.512 188.27 139.066 186.137 138.95 183.272C138.755 178.445 137.907 173.022 135.015 168.973Z" fill="#E6E6E6"/>
<path d="M91.5414 180.521C90.9543 176.965 90.3784 173.406 89.7798 169.852C89.1725 166.246 87.9321 162.944 85.1248 160.577C84.3747 159.945 83.5969 159.354 82.8159 158.766C82.5412 158.559 82.267 158.352 81.9957 158.14C81.9794 158.128 81.9691 158.12 81.955 158.109C81.9252 158.083 81.8894 158.053 81.8413 158.012C80.6712 157.022 79.5406 155.988 78.4637 154.889C77.5073 153.913 76.5928 152.896 75.72 151.836C75.5019 151.572 75.2866 151.305 75.0741 151.036C75.0375 150.989 74.8407 150.735 74.711 150.569C74.5903 150.403 74.3699 150.103 74.3329 150.051C74.0846 149.7 73.8408 149.346 73.6014 148.988C71.9707 146.546 70.5587 143.965 69.3818 141.275C69.2651 141.008 69.1511 140.74 69.04 140.47C69.0101 140.388 68.9715 140.282 68.9203 140.141C68.6831 139.489 68.4464 138.838 68.2295 138.178C67.7688 136.777 67.3727 135.355 67.0412 133.913C66.8773 133.201 66.7298 132.485 66.5986 131.765C66.5309 131.395 66.4676 131.024 66.4087 130.653C66.399 130.591 66.3415 130.19 66.3076 129.964C66.2826 129.736 66.2361 129.333 66.2298 129.271C66.1923 128.896 66.1591 128.522 66.13 128.146C66.0646 127.302 66.0203 126.456 65.9972 125.609C65.9578 124.103 65.9848 122.598 66.0782 121.092C66.1313 120.246 66.2069 119.403 66.3 118.561C66.3056 118.509 66.31 118.468 66.3141 118.431C66.3197 118.393 66.3263 118.35 66.3341 118.297C66.403 117.832 66.4755 117.367 66.5566 116.904C66.8636 115.145 67.263 113.403 67.753 111.686C67.9851 110.874 68.2371 110.068 68.5091 109.27C68.6303 108.915 68.7554 108.562 68.8844 108.21C68.8759 108.232 69.2626 107.245 69.2678 107.212C70.8021 103.589 73.3116 100.285 73.315 96.1691C73.3173 93.3822 70.9586 90.7126 68.1954 90.8414C66.8177 90.8932 65.5139 91.4777 64.5589 92.4715C63.6038 93.4654 63.0721 94.791 63.0757 96.1691C63.0757 96.2317 63.0754 96.285 63.0752 96.3369C63.0495 96.4236 63.0279 96.496 63.0085 96.56C62.7093 97.21 62.3428 97.8275 62.0144 98.4613C61.1151 100.196 60.3474 101.987 59.6183 103.805C58.4246 106.766 57.5108 109.831 56.8891 112.962C55.5376 119.821 55.4328 126.868 56.5794 133.764C58.5644 145.858 65.1106 157.435 74.2112 165.217C75.001 165.892 75.81 166.545 76.6266 167.184C76.9646 167.449 77.3053 167.708 77.6478 167.966C77.8097 168.088 78.4803 168.617 78.1853 168.361C78.8196 168.902 79.0866 169.174 79.2496 169.573C79.2732 169.665 79.3054 169.79 79.349 169.96C79.4638 170.41 79.5728 170.858 79.6635 171.314C80.4556 175.296 81.0062 179.346 81.6679 183.354C82.1227 186.108 85.5146 187.9 87.9657 187.075C90.8186 186.114 92.0287 183.472 91.5414 180.521Z" fill="#E6E6E6"/>
<path d="M135.532 190.851C133.382 190.856 131.318 190.009 129.792 188.495C128.266 186.981 127.403 184.924 127.392 182.775V176.937C121.278 177.621 100.34 177.463 94.3385 176.499V182.541C94.3224 184.689 93.4576 186.743 91.9328 188.255C90.4079 189.768 88.3466 190.617 86.1982 190.617C84.0497 190.617 81.9884 189.768 80.4636 188.255C78.9387 186.743 78.074 184.689 78.0579 182.541V170.678C69.929 166.164 63.1525 159.563 58.4276 151.558C53.7028 143.552 51.2007 134.431 51.1797 125.136C51.1797 109.199 58.4058 94.3312 71.0051 84.3461C79.1971 77.8319 89.1503 73.9142 99.5864 73.0963C101.003 72.9853 102.428 72.929 103.823 72.929C108.735 72.929 130.899 73.6876 136.46 75.2868L149.14 62.7101C149.326 62.5227 149.564 62.3951 149.823 62.3434C150.083 62.2918 150.352 62.3185 150.596 62.4201C150.841 62.5179 151.052 62.6877 151.2 62.9073C151.347 63.1269 151.425 63.3859 151.423 63.6504V65.6501L153.892 63.2058C154.078 63.0182 154.315 62.8904 154.575 62.8386C154.834 62.7869 155.102 62.8136 155.346 62.9153C155.592 63.0131 155.803 63.1829 155.951 63.4026C156.099 63.6223 156.177 63.8814 156.174 64.1461V86.4916C162.537 92.2252 167.386 99.4391 170.293 107.494C173.199 115.549 174.073 124.196 172.837 132.669C171.6 141.142 168.292 149.18 163.205 156.069C158.117 162.959 151.409 168.488 143.673 172.166V182.775C143.662 184.924 142.799 186.981 141.273 188.495C139.747 190.009 137.682 190.856 135.532 190.851ZM128.032 176.212V182.775C128.048 184.752 128.846 186.644 130.25 188.036C131.655 189.429 133.554 190.211 135.532 190.211C137.511 190.211 139.41 189.429 140.814 188.036C142.219 186.644 143.016 184.752 143.033 182.775V171.762L143.215 171.675C151.896 167.558 159.264 161.116 164.504 153.066C171.18 142.793 173.957 130.471 172.331 118.329C170.705 106.188 164.784 95.0287 155.641 86.8723L155.534 86.7769V64.1461C155.537 64.0086 155.497 63.8737 155.42 63.7596C155.343 63.6455 155.233 63.5576 155.105 63.5078C154.977 63.4534 154.836 63.4386 154.701 63.4657C154.565 63.4927 154.44 63.5601 154.343 63.6592L150.783 67.184V63.6504C150.785 63.5129 150.745 63.378 150.668 63.2639C150.591 63.1498 150.481 63.0619 150.353 63.0122C150.225 62.9578 150.084 62.9432 149.948 62.9704C149.812 62.9976 149.687 63.0653 149.59 63.1646L136.638 76.0105L136.454 75.9528C131.285 74.3355 108.772 73.5687 103.822 73.5687C102.445 73.5687 101.036 73.6243 99.6367 73.7341C89.3274 74.542 79.4951 78.4121 71.4028 84.8473C58.9574 94.7104 51.8196 109.395 51.8196 125.136C51.8409 134.349 54.3295 143.388 59.0271 151.314C63.7247 159.24 70.4598 165.765 78.5327 170.21L78.6978 170.301V182.541C78.7143 184.519 79.5118 186.41 80.9166 187.802C82.3214 189.195 84.2197 189.976 86.1982 189.976C88.1766 189.976 90.0749 189.195 91.4797 187.802C92.8845 186.41 93.682 184.519 93.6985 182.541V175.733L94.0776 175.804C99.4711 176.819 122.182 176.979 127.67 176.259L128.032 176.212Z" fill="#3F3D56"/>
<path d="M92.1531 38.0985L56.7186 48.7427C55.5915 49.0826 54.6456 49.8559 54.0885 50.8925C53.5314 51.9291 53.4088 53.1444 53.7476 54.2714C54.0864 55.3983 54.8589 56.3447 55.8953 56.9027C56.9318 57.4607 58.1475 57.5846 59.2753 57.2473L90.2843 47.9303L90.9339 47.7352C91.0654 44.3892 91.9735 41.1197 93.5865 38.1848C93.3841 38.0938 93.1677 38.0376 92.9466 38.0185C92.6794 37.9927 92.4097 38.0198 92.1531 38.0985Z" fill="#478259"/>
<path d="M58.6625 59.5166C58.1921 59.5155 57.734 59.3666 57.3528 59.0911C56.9717 58.8155 56.6868 58.4272 56.5385 57.981L54.3227 51.2976C54.2302 51.0185 54.1935 50.724 54.2149 50.4307C54.2363 50.1374 54.3152 49.8513 54.4472 49.5885C54.5793 49.3258 54.7618 49.0916 54.9844 48.8993C55.2069 48.7071 55.4652 48.5606 55.7445 48.4681L84.5845 38.9145C84.8637 38.822 85.1584 38.7854 85.4517 38.8067C85.7451 38.828 86.0314 38.9069 86.2942 39.0388C86.5571 39.1707 86.7914 39.3531 86.9837 39.5756C87.1761 39.798 87.3227 40.0561 87.4152 40.3352L89.631 47.0185C89.8154 47.5682 89.7784 48.1681 89.528 48.691C89.2775 49.214 88.8333 49.6189 88.2893 49.8201C88.2627 49.8301 88.2358 49.8395 88.2086 49.8484L59.3693 59.4017C59.1413 59.4776 58.9027 59.5164 58.6625 59.5166Z" fill="#2F2E41"/>
<path d="M112.673 26.2292C106.852 26.2315 101.261 28.4976 97.0822 32.5479C92.9035 36.5983 90.4655 42.1149 90.2842 47.9303C90.2778 48.1574 90.2747 48.3877 90.2747 48.618C90.2747 53.0461 91.5883 57.3747 94.0495 61.0565C96.5106 64.7383 100.009 67.6079 104.102 69.3025C108.194 70.997 112.698 71.4404 117.043 70.5765C121.388 69.7127 125.379 67.5803 128.511 64.4492C131.644 61.3181 133.777 57.3288 134.641 52.9858C135.505 48.6428 135.062 44.1412 133.367 40.0502C131.671 35.9592 128.8 32.4625 125.117 30.0024C121.434 27.5423 117.103 26.2292 112.673 26.2292ZM112.673 70.3671C106.904 70.361 101.373 68.0677 97.2942 63.9903C93.215 59.9128 90.9206 54.3844 90.9146 48.618C90.9146 48.3205 90.921 48.0263 90.9338 47.7352C91.1071 43.4749 92.5294 39.3595 95.0239 35.9007C97.5183 32.4419 100.975 29.7923 104.964 28.2814C108.953 26.7705 113.298 26.465 117.459 27.4028C121.62 28.3405 125.414 30.4803 128.368 33.556C131.323 36.6316 133.308 40.5075 134.076 44.7016C134.844 48.8957 134.362 53.223 132.69 57.1455C131.017 61.0679 128.228 64.4125 124.669 66.7632C121.11 69.1139 116.939 70.3672 112.673 70.3671Z" fill="#3F3D56"/>
<path d="M131.552 48.618C131.552 53.6228 129.563 58.4226 126.022 61.9615C122.482 65.5004 117.68 67.4885 112.673 67.4885C107.666 67.4885 102.864 65.5004 99.3239 61.9615C95.7834 58.4226 93.7944 53.6228 93.7944 48.618C93.7944 48.0199 93.8232 47.4314 93.8776 46.8493C94.3325 42.0192 96.6311 37.5497 100.296 34.369C103.961 31.1883 108.711 29.5407 113.559 29.7684C118.407 29.996 122.981 32.0813 126.332 35.5914C129.682 39.1014 131.552 43.7665 131.552 48.618Z" fill="#E6E6E6"/>
<path d="M118.295 49.8718C117.837 49.2704 117.236 48.7941 116.545 48.4869C115.693 48.1281 114.813 47.8392 113.915 47.6233V42.4867C115.296 42.6949 116.592 43.2854 117.655 44.1915L118.698 41.9686C118.098 41.4343 117.41 41.0089 116.663 40.7116C115.836 40.3767 114.967 40.1541 114.081 40.0495V37.446H111.665V40.0751C110.732 40.1799 109.833 40.4819 109.025 40.9611C108.296 41.3924 107.683 41.9938 107.237 42.7138C106.811 43.4165 106.591 44.2241 106.6 45.0454C106.558 45.9355 106.816 46.8138 107.333 47.5402C107.808 48.169 108.436 48.6666 109.156 48.9858C110.022 49.3553 110.917 49.6516 111.832 49.8718V54.7941C110.201 54.6712 108.648 54.0517 107.381 53.019L106.338 55.2451C107.046 55.8306 107.852 56.2874 108.718 56.5948C109.668 56.9344 110.659 57.141 111.665 57.2089V59.79H114.081V57.1609C115.423 57.0144 116.681 56.4376 117.668 55.517C118.103 55.1004 118.446 54.5982 118.676 54.0421C118.906 53.4861 119.018 52.8883 119.006 52.2866C119.046 51.4249 118.796 50.5746 118.295 49.8718ZM111.832 47.0796C111.243 46.9012 110.696 46.6077 110.222 46.216C110.034 46.049 109.886 45.8425 109.787 45.6114C109.689 45.3802 109.643 45.1302 109.653 44.8791C109.635 44.3094 109.845 43.7561 110.235 43.3407C110.668 42.9048 111.226 42.6152 111.832 42.5123V47.0796ZM115.431 53.8858C115.023 54.3042 114.492 54.5811 113.915 54.6758V50.4411C114.466 50.589 114.982 50.8469 115.431 51.1991C115.602 51.3445 115.737 51.5264 115.827 51.7313C115.918 51.9362 115.961 52.1588 115.953 52.3825C115.975 52.9315 115.789 53.4685 115.431 53.8858Z" fill="#478259"/>
<path d="M59.6909 86.6035C59.1963 86.6027 58.7157 86.4387 58.3238 86.1371C57.9318 85.8355 57.6503 85.413 57.5231 84.9353L56.3167 80.3712C56.1657 79.7975 56.2485 79.1874 56.5469 78.6746C56.8454 78.1619 57.3351 77.7884 57.9086 77.6361L95.9671 67.5837C96.5414 67.4339 97.1516 67.5176 97.6644 67.8164C98.1772 68.1152 98.5507 68.6048 98.7032 69.1782L99.7251 73.045L99.5337 73.0598C89.7729 73.8185 80.4337 77.3558 72.6211 83.2535L72.5656 83.2803L60.2592 86.5298C60.0737 86.5787 59.8827 86.6035 59.6909 86.6035Z" fill="#2F2E41"/>
<path d="M53.3877 109.148C48.9233 108.488 44.6535 106.875 40.8695 104.417C38.9948 103.2 37.2593 101.781 35.6942 100.186C34.1494 98.6107 32.6715 96.8206 31.9063 94.7231C31.1701 92.7825 31.2081 90.6333 32.0123 88.7199C32.8056 86.8182 34.3209 85.3085 36.226 84.5219C38.1426 83.7579 40.4581 83.6762 42.3233 84.5128C43.2122 84.9023 43.9813 85.5211 44.5518 86.3058C44.817 86.6676 45.0133 87.075 45.131 87.5078C45.2403 87.9 45.2502 88.3132 45.16 88.7101C45.0506 89.1064 44.8577 89.4748 44.5942 89.7905C44.3308 90.1062 44.0028 90.3619 43.6324 90.5406C42.8172 90.9586 41.9338 91.2279 41.0239 91.3358C40.1087 91.4605 38.7941 91.574 38.0584 90.8397C37.9069 90.6944 37.7878 90.5189 37.7088 90.3245C37.6534 90.1757 37.6345 90.0158 37.6536 89.8581C37.6429 89.9276 37.698 89.7071 37.6948 89.7159C37.6832 89.7485 37.6328 89.8279 37.7044 89.7058C37.7268 89.6656 37.7517 89.6268 37.779 89.5897C37.7547 89.6212 37.7013 89.6736 37.7967 89.5836C37.8755 89.4974 37.9768 89.4349 38.0892 89.4031C38.1335 89.3902 38.1784 89.3799 38.2229 89.3678C38.3357 89.337 38.1103 89.3695 38.2258 89.3658C38.2704 89.3644 38.3155 89.3655 38.3599 89.3635C38.4732 89.3584 38.2481 89.3326 38.3567 89.3599C38.3989 89.3705 38.4406 89.3808 38.4821 89.3939C38.5724 89.4223 38.4182 89.3277 38.4794 89.3985C38.5511 89.4815 38.4041 89.3178 38.4856 89.3981C38.5261 89.4379 38.5643 89.4801 38.6 89.5243C38.7413 89.6637 38.9319 89.7419 39.1304 89.7419C39.3289 89.7419 39.5195 89.6637 39.6608 89.5243C39.7972 89.3815 39.8734 89.1916 39.8734 88.9941C39.8734 88.7966 39.7972 88.6068 39.6608 88.464C38.9212 87.5475 37.4603 87.774 36.7121 88.5485C35.7579 89.5364 36.1358 91.1019 37.0639 91.9638C38.1146 92.9395 39.6027 93.0074 40.9543 92.8437C42.0965 92.7343 43.2097 92.4199 44.2402 91.9155C45.2642 91.4126 46.0651 90.5478 46.4878 89.4885C46.6786 88.9232 46.7471 88.3239 46.6889 87.7301C46.6306 87.1363 46.4468 86.5617 46.1497 86.0442C44.9564 83.8018 42.4855 82.6521 40.0431 82.4529C38.7857 82.3545 37.5212 82.5063 36.3228 82.8995C35.1245 83.2927 34.016 83.9196 33.0616 84.7439C31.2221 86.3993 30.0893 88.698 29.8976 91.1647C29.6844 93.7221 30.6771 96.2057 32.1244 98.2697C33.6395 100.367 35.4476 102.236 37.4934 103.82C41.493 107.012 46.1844 109.223 51.1923 110.278C51.788 110.401 52.3869 110.506 52.9889 110.594C53.1805 110.64 53.3826 110.612 53.554 110.514C53.7254 110.417 53.8533 110.258 53.9116 110.07C53.963 109.878 53.9369 109.674 53.8388 109.501C53.7408 109.329 53.5787 109.202 53.3877 109.148Z" fill="#3F3D56"/>
<path d="M124.866 76.5637C118.325 76.4714 111.805 76.6373 105.305 77.0615C103.083 77.2065 101.161 77.9914 101.161 79.3106C101.161 80.4136 103.068 81.7057 105.305 81.5597C111.801 81.1356 118.322 80.9697 124.866 81.0619C130.201 81.1372 130.198 76.6389 124.866 76.5637Z" fill="#CCCCCC"/>
<path d="M115.198 80.8391C114.491 80.8391 97.8857 80.8127 97.8857 78.5199C97.8857 76.2273 114.491 76.2009 115.198 76.2009C115.905 76.2009 132.511 76.2273 132.511 78.5199C132.511 80.8127 115.905 80.8391 115.198 80.8391ZM98.5351 78.5199C98.9895 79.215 105.093 80.1994 115.198 80.1994C125.303 80.1994 131.407 79.215 131.862 78.5199C131.407 77.825 125.303 76.8406 115.198 76.8406C105.093 76.8406 98.9895 77.825 98.5351 78.5199Z" fill="#3F3D56"/>
<path d="M167.884 141.113C171.56 141.011 176.135 140.883 179.66 138.31C180.709 137.512 181.571 136.495 182.186 135.329C182.801 134.163 183.153 132.876 183.218 131.56C183.29 129.528 182.555 127.754 181.149 126.566C179.308 125.011 176.62 124.647 173.723 125.498L176.725 103.573L174.522 103.271L170.993 129.046L172.833 128.202C174.966 127.224 177.894 126.727 179.714 128.264C180.161 128.666 180.509 129.165 180.731 129.723C180.953 130.281 181.044 130.883 180.996 131.482C180.942 132.462 180.677 133.418 180.22 134.287C179.763 135.155 179.125 135.915 178.348 136.515C175.605 138.517 171.958 138.775 167.822 138.891L167.884 141.113Z" fill="#3F3D56"/>
<path d="M161.792 105.464H149.815V107.687H161.792V105.464Z" fill="#3F3D56"/>
<path d="M65.1108 96.8273C64.5777 96.8256 64.0626 96.6342 63.6578 96.2874C63.253 95.9406 62.9849 95.4611 62.9017 94.9347L62.1706 90.271C62.0793 89.6844 62.2245 89.0856 62.5743 88.6059C62.9242 88.1263 63.4501 87.8049 64.0368 87.7124L102.924 81.6219C103.511 81.5306 104.11 81.6758 104.59 82.0255C105.07 82.3752 105.391 82.9008 105.484 83.4872L106.215 88.1511C106.306 88.7376 106.161 89.3364 105.811 89.8161C105.461 90.2958 104.935 90.6171 104.349 90.7096L65.4613 96.8C65.3453 96.8181 65.2282 96.8273 65.1108 96.8273Z" fill="#2F2E41"/>
<path d="M49.0173 42.1723C58.0299 42.1723 65.3361 34.8693 65.3361 25.8605C65.3361 16.8517 58.0299 9.54871 49.0173 9.54871C40.0046 9.54871 32.6984 16.8517 32.6984 25.8605C32.6984 34.8693 40.0046 42.1723 49.0173 42.1723Z" fill="#478259"/>
<path d="M58.2567 30.0811C58.7782 29.8988 59.2547 29.6069 59.654 29.2252C59.9182 28.953 60.1196 28.6264 60.2443 28.2682C60.3689 27.91 60.4137 27.529 60.3755 27.1517C60.3533 26.8827 60.2692 26.6226 60.1297 26.3916C59.9903 26.1605 59.7993 25.9648 59.5716 25.8198C58.9811 25.4568 58.2007 25.4705 57.4128 25.8356L57.3218 19.4683L56.682 19.4774L56.7888 26.9628L57.276 26.6435C57.8408 26.2738 58.6524 26.0057 59.2363 26.3647C59.3808 26.4598 59.5013 26.5868 59.5886 26.736C59.6759 26.8852 59.7276 27.0525 59.7396 27.2249C59.7666 27.506 59.7326 27.7896 59.64 28.0564C59.5475 28.3231 59.3985 28.5669 59.2033 28.7709C58.5096 29.4589 57.4828 29.6895 56.3109 29.9003L56.4243 30.5298C57.0473 30.4352 57.6605 30.2851 58.2567 30.0811Z" fill="#2F2E41"/>
<path d="M63.9115 19.0214L60.5037 19.5372L60.5995 20.1696L64.0073 19.6538L63.9115 19.0214Z" fill="#2F2E41"/>
<path d="M53.1548 20.6493L49.7469 21.1652L49.8428 21.7975L53.2506 21.2817L53.1548 20.6493Z" fill="#2F2E41"/>
<path d="M59.8015 96.5421C59.2147 96.5409 58.6421 96.361 58.16 96.0265C57.6778 95.692 57.3091 95.2187 57.1027 94.6695L45.8513 64.5506C44.4761 60.8567 44.6229 56.7684 46.2596 53.1826C47.8963 49.5967 50.8892 46.8063 54.5816 45.4235L63.7303 42.0088C64.0841 41.8759 64.4607 41.8142 64.8384 41.8273C65.2161 41.8404 65.5875 41.928 65.9312 42.0852C66.274 42.2383 66.5829 42.4582 66.8398 42.732C67.0966 43.0058 67.2963 43.328 67.4272 43.6798L88.2694 83.0149C88.4048 83.3696 88.4686 83.7475 88.4572 84.127C88.4458 84.5064 88.3595 84.8799 88.2031 85.2258C88.0468 85.5718 87.8236 85.8834 87.5463 86.1428C87.269 86.4022 86.9431 86.6042 86.5874 86.7372L60.808 96.3593C60.4861 96.4799 60.1453 96.5419 59.8015 96.5421Z" fill="#2F2E41"/>
<path d="M60.9546 43.0448L81.6345 70.6871L67.6413 43.3349C67.5257 43.0157 67.3484 42.7225 67.1194 42.4719C66.8904 42.2212 66.6143 42.0182 66.3068 41.8742C65.9993 41.7303 65.6664 41.6483 65.3272 41.633C64.988 41.6177 64.6491 41.6693 64.3298 41.7849L60.9546 43.0448Z" fill="#E6E6E6"/>
<path d="M93.6986 64.0374L56.7747 61.66C56.1927 61.6225 55.6237 61.4708 55.1004 61.2136C54.577 60.9563 54.1095 60.5986 53.7244 60.1607C53.3394 59.7228 53.0444 59.2135 52.8563 58.6616C52.6682 58.1098 52.5907 57.5264 52.6282 56.9446C52.6657 56.3629 52.8174 55.7942 53.0748 55.2711C53.3322 54.7479 53.6901 54.2806 54.1281 53.8957C54.5662 53.5108 55.0758 53.216 55.6278 53.028C56.1799 52.84 56.7636 52.7625 57.3456 52.8L94.2696 55.1772C94.5421 55.1947 94.8086 55.2657 95.0537 55.3862C95.2988 55.5066 95.5178 55.6742 95.6981 55.8792C95.8784 56.0843 96.0166 56.3228 96.1046 56.5813C96.1927 56.8397 96.229 57.1129 96.2115 57.3854L95.908 62.0964C95.8725 62.6466 95.6198 63.1602 95.2055 63.5242C94.7911 63.8882 94.2491 64.0728 93.6986 64.0374Z" fill="#478259"/>
<path d="M83.832 65.5615C83.7833 65.5615 83.7344 65.5599 83.6854 65.5568L53.3654 63.6047C53.0719 63.5858 52.785 63.5093 52.521 63.3796C52.257 63.2499 52.0212 63.0695 51.827 62.8486C51.6328 62.6278 51.4841 62.3709 51.3892 62.0926C51.2943 61.8143 51.2552 61.52 51.2742 61.2266L51.7927 53.1801C51.8116 52.8866 51.8881 52.5998 52.0179 52.336C52.1477 52.0721 52.3283 51.8365 52.5492 51.6424C52.7701 51.4483 53.0272 51.2996 53.3056 51.2048C53.5841 51.11 53.8785 51.0709 54.172 51.0899L84.4918 53.0418C85.0844 53.0806 85.6373 53.3528 86.0294 53.7986C86.4214 54.2444 86.6205 54.8275 86.583 55.4199L86.0646 63.4666C86.0361 63.8978 85.8836 64.3115 85.6256 64.6582C85.3675 65.0049 85.0149 65.2698 84.61 65.4211C84.3612 65.5141 84.0977 65.5617 83.832 65.5615Z" fill="#2F2E41"/>
<path d="M48.8302 15.0134C50.977 13.1678 53.9251 14.8188 56.387 14.5298C58.7425 14.2533 60.6023 12.1414 61.0775 9.89777C61.6318 7.28021 60.2726 4.65779 58.2691 3.02579C56.0749 1.23834 53.1648 0.725207 50.4071 1.0559C47.2465 1.43491 44.356 2.90756 41.7623 4.6888C39.2588 6.35488 36.9565 8.30492 34.9014 10.5C33.0612 12.5315 31.502 14.953 31.0042 17.6867C30.5517 20.1711 30.8972 22.9241 32.3665 25.0287C33.1456 26.1074 34.1897 26.9672 35.398 27.5251C36.6579 28.1435 38.0019 28.5856 39.2225 29.2848C41.068 30.3419 42.8617 32.534 42.2836 34.8151C42.1597 35.3134 41.9151 35.7736 41.5713 36.1552C41.1584 36.6135 40.4134 36.0079 40.8275 35.5485C41.5548 34.7415 41.5261 33.6653 41.1385 32.7018C40.6777 31.6161 39.8616 30.7191 38.824 30.1577C37.5463 29.4276 36.1357 28.9768 34.8262 28.3118C33.5728 27.7042 32.4847 26.8029 31.6547 25.6846C30.0874 23.5075 29.6186 20.6741 29.974 18.053C30.3587 15.2165 31.8167 12.639 33.6444 10.479C35.6335 8.12839 38.0767 6.13864 40.5727 4.35111C43.251 2.43308 46.2099 0.811525 49.4841 0.225032C52.3224 -0.283365 55.3989 0.0296366 57.8808 1.57569C60.1975 3.01883 61.9741 5.50132 62.1507 8.27527C62.2142 9.5374 61.94 10.7936 61.3564 11.9147C60.7729 13.0357 59.901 13.9811 58.8306 14.6535C57.7322 15.3105 56.4551 15.6062 55.1796 15.499C53.816 15.4117 52.4511 14.9943 51.0787 15.1102C50.4577 15.1479 49.866 15.3869 49.3931 15.791C48.924 16.1942 48.365 15.4133 48.8302 15.0134Z" fill="#2F2E41"/>
<path d="M236.619 191H0.38099C0.280135 191 0.183514 190.96 0.112302 190.888C0.0410903 190.817 0.00109863 190.72 0.00109863 190.619C0.00109863 190.518 0.0410903 190.422 0.112302 190.35C0.183514 190.279 0.280135 190.239 0.38099 190.238H236.619C236.72 190.238 236.817 190.279 236.888 190.35C236.96 190.421 237 190.518 237 190.619C237 190.72 236.96 190.817 236.888 190.889C236.817 190.96 236.72 191 236.619 191Z" fill="#3F3D56"/>
</g>
<defs>
<clipPath id="clip0_44_181">
<rect width="237" height="191" fill="white"/>
</clipPath>
</defs>
</svg>
